<?xml version="1.0" encoding="UTF-8" standalone="no"?>
<!-- Created with Inkscape (http://www.inkscape.org/) -->

<svg
   version="1.1"
   id="svg178"
   width="244"
   height="207"
   viewBox="0 0 244 207"
   sodipodi:docname="iguana2.png"
   inkscape:version="1.2.2 (b0a8486541, 2022-12-01)"
   inkscape:dataloss="true"
   xmlns:inkscape="http://www.inkscape.org/namespaces/inkscape"
   xmlns:sodipodi="http://sodipodi.sourceforge.net/DTD/sodipodi-0.dtd"
   xmlns="http://www.w3.org/2000/svg"
   xmlns:svg="http://www.w3.org/2000/svg">
  <defs
     id="defs182">
    <filter
       style="color-interpolation-filters:sRGB"
       inkscape:label="Blur"
       id="filter1716"
       x="-0.34601015"
       y="-0.4021377"
       width="1.6920203"
       height="1.8042754">
      <feGaussianBlur
         stdDeviation="9.38672 9.73586"
         result="fbSourceGraphic"
         id="feGaussianBlur1714" />
      <feColorMatrix
         result="fbSourceGraphicAlpha"
         in="fbSourceGraphic"
         values="0 0 0 -1 0 0 0 0 -1 0 0 0 0 -1 0 0 0 0 1 0"
         id="feColorMatrix1758" />
      <feGaussianBlur
         id="feGaussianBlur1760"
         stdDeviation="10.5862 10.221"
         result="fbSourceGraphic"
         in="fbSourceGraphic" />
      <feColorMatrix
         result="fbSourceGraphicAlpha"
         in="fbSourceGraphic"
         values="0 0 0 -1 0 0 0 0 -1 0 0 0 0 -1 0 0 0 0 1 0"
         id="feColorMatrix1762" />
      <feGaussianBlur
         id="feGaussianBlur1764"
         stdDeviation="10.5862 10.221"
         result="blur"
         in="fbSourceGraphic" />
    </filter>
  </defs>
  <sodipodi:namedview
     id="namedview180"
     pagecolor="#505050"
     bordercolor="#eeeeee"
     borderopacity="1"
     inkscape:showpageshadow="0"
     inkscape:pageopacity="0"
     inkscape:pagecheckerboard="0"
     inkscape:deskcolor="#505050"
     showgrid="false"
     inkscape:zoom="2.9611906"
     inkscape:cx="106.20728"
     inkscape:cy="82.905841"
     inkscape:window-width="1920"
     inkscape:window-height="1011"
     inkscape:window-x="0"
     inkscape:window-y="30"
     inkscape:window-maximized="1"
     inkscape:current-layer="g184" />
  <g
     inkscape:groupmode="layer"
     id="layer1"
     inkscape:label="glow">
    <path
       style="fill:#ffff00;fill-opacity:1;stroke-width:0.873071;stroke-dasharray:none;filter:url(#filter1716)"
       d="m 71.235629,193.04646 c -9.04171,-1.28004 -19.53564,-4.39841 -27.80946,-8.26384 -6.1794,-2.88693 -8.83295,-4.73558 -12.38038,-8.625 -11.43413,-12.53649 -15.33391,-30.81922 -9.76985,-45.80245 2.46937,-6.64964 8.21041,-14.64955 17.3234,-24.13943 4.08354,-4.25242 7.43,-8.381653 7.43659,-9.176053 0.007,-0.87258 0.74018,-1.45594 1.85142,-1.47358 2.11409,-0.0336 4.93157,-2.48906 4.01784,-3.50165 -0.3376,-0.37413 0.1727,-0.41997 1.134,-0.10189 l 1.74782,0.57834 -1.74782,-1.41677 c -1.69581,-1.37461 -1.67631,-1.40018 0.65543,-0.85941 1.32179,0.30655 2.40326,0.3658 2.40326,0.13167 0,-0.23413 -1.08147,-1.0124 -2.40326,-1.72947 l -2.40325,-1.30379 2.62173,-0.0216 c 1.44195,-0.0119 3.17596,0.32924 3.85335,0.75806 1.55928,0.9871 3.57489,0.2488 3.57489,-1.30946 0,-0.65448 0.51454,-0.9925 1.14343,-0.75117 0.62888,0.24133 2.06203,-0.35792 3.18476,-1.33167 l 2.04133,-1.77044 -4.05867,-1.79534 c -4.28941,-1.89741 -5.62257,-3.1388 -1.817,-1.69193 3.25891,1.23904 4.57421,0.99452 2.61628,-0.48637 -2.24454,-1.69769 -1.08468,-1.63039 2.39521,0.13898 l 2.79681,1.42204 -2.17168,-2.51445 c -1.19443,-1.38294 -1.63809,-2.05359 -0.9859,-1.49034 0.65218,0.56325 1.73079,0.81496 2.39691,0.55935 0.66612,-0.25562 2.17939,0.16967 3.36284,0.9451 1.99307,1.30592 2.11049,1.30243 1.59256,-0.0473 -0.40622,-1.0586 -0.24258,-1.26148 0.59829,-0.74179 0.83347,0.51511 0.96014,0.37177 0.45254,-0.51207 -1.25262,-2.18112 -3.2799,-4.25366 -3.83301,-3.91858 -0.29625,0.17947 -1.18454,-0.5359 -1.97397,-1.58971 -1.39896,-1.86745 -1.36574,-1.91872 1.31087,-2.023 2.53367,-0.0987 2.57712,-0.0558 0.56142,0.55458 -2.08447,0.63119 -2.02865,0.70647 1.21584,1.63973 1.87034,0.53799 4.25006,1.68273 5.28827,2.54386 1.03821,0.86114 0.59517,0.28761 -0.98453,-1.2745 -3.27562,-3.23915 -2.61931,-3.77573 1.13537,-0.92825 l 2.52111,1.91198 -2.10453,-2.3339 c -1.15748,-1.28365 -2.8808,-2.58029 -3.82958,-2.88142 -1.3718,-0.43539 -1.47772,-0.70418 -0.51721,-1.31251 1.77233,-1.12249 1.92416,-1.07196 7.01893,2.33585 l 4.67585,3.1276 -3.49564,-3.68888 -3.49564,-3.6889 2.94857,1.65368 c 1.62172,0.90952 3.38767,2.34188 3.92434,3.18302 0.53667,0.84114 1.348,1.52934 1.80295,1.52934 0.45496,0 -0.3031,-1.17978 -1.68458,-2.62173 -2.9303,-3.05856 -2.28851,-3.37756 1.61292,-0.80168 l 2.75663,1.82004 -2.62173,-2.25266 c -3.20893,-2.75719 -2.171,-2.93549 2.01788,-0.34661 1.70394,1.05309 2.80689,1.44356 2.45098,0.86768 -1.23665,-2.00094 -5.70179,-3.75952 -7.33132,-2.88742 -1.01894,0.54531 -2.21266,0.4597 -3.54693,-0.25438 -1.96426,-1.05124 -1.93102,-1.10031 1.42662,-2.10628 4.87369,-1.4602 7.58098,-1.28703 11.79039,0.75416 l 3.67931,1.78413 -4.16747,-3.9072 c -2.29211,-2.14897 -3.77567,-4.14935 -3.29682,-4.44529 0.47886,-0.29595 3.14074,0.90758 5.91529,2.6745 3.29047,2.09549 4.465751,2.56502 3.37985,1.3503 -1.78249,-1.99397 -0.82093,-2.58701 1.248341,-0.76992 0.68419,0.60082 0.50526,0.20756 -0.39762,-0.87391 -1.615321,-1.93482 -3.736191,-2.79879 -2.681571,-1.09239 1.05462,1.70642 -1.06625,0.84244 -2.68158,-1.09239 -0.90288,-1.08146 -1.08181,-1.47472 -0.39762,-0.87391 1.4852,1.30421 2.96813,1.45279 2.20692,0.22113 -0.63398,-1.0258 3.725621,0.48683 5.394131,1.87157 1.29979,1.07873 5.0196,-1.13853 3.99322,-2.38025 -0.35743,-0.43241 0.29241,-0.004 1.4441,0.9523 1.52921,1.26961 1.98616,1.38495 1.69422,0.42764 -0.21986,-0.72097 -2.28807,-2.58896 -4.596,-4.15107 -4.57342,-3.095508 -4.44452,-3.904723 0.17349,-1.08912 4.24343,2.58721 4.30347,2.16534 0.30866,-2.168515 -3.89027,-4.220447 -4.33731,-5.051452 -2.29608,-4.268153 0.72098,0.276662 1.31087,0.819579 1.31087,1.206486 0,0.386897 0.97219,0.596732 2.16043,0.466301 1.18824,-0.13044 1.98192,0.05165 1.76376,0.404664 -0.21817,0.353007 0.59577,0.641826 1.80875,0.641826 2.14954,0 2.16575,-0.04527 0.63949,-1.787654 -0.86125,-0.98321 0.72918,-0.110112 3.53432,1.940221 4.19563,3.066684 4.91378,3.364374 4.04901,1.678416 -0.57818,-1.127205 -2.67666,-3.785772 -4.66329,-5.907937 l -3.61205,-3.858478 3.25272,1.848283 c 3.7298,2.119376 5.23314,1.118877 2.73178,-1.818052 -1.43258,-1.682051 -1.44018,-1.76072 -0.0673,-0.696661 1.78119,1.380531 6.13865,2.079664 5.38758,0.864411 -0.2759,-0.446427 -0.77376,-0.643513 -1.10633,-0.437969 -0.33258,0.205544 -1.36372,-0.181301 -2.29142,-0.859656 -2.17889,-1.593242 -1.2183,-1.565821 2.71471,0.0775 4.44969,1.859197 4.64653,1.623537 1.17607,-1.407956 -1.68227,-1.469492 -2.46879,-2.383559 -1.74782,-2.031259 2.30817,1.127867 5.20473,4.105754 4.73419,4.867102 -0.25047,0.405279 0.15491,0.50267 0.90084,0.216426 0.74591,-0.286248 1.35622,-0.08511 1.35622,0.446961 0,0.532076 0.43087,0.96741 0.95749,0.96741 0.52661,0 2.09965,0.813298 3.49564,1.807329 1.39598,0.994031 2.53816,1.558064 2.53816,1.253418 0,-1.326332 -2.18765,-4.615548 -5.08719,-7.648778 -1.723,-1.80244 -2.73605,-3.277164 -2.25124,-3.277164 1.27395,0 6.55338,3.978801 8.99247,6.777113 l 2.09101,2.398948 -1.56909,-2.621732 c -0.86299,-1.441952 -2.68877,-4.054733 -4.0573,-5.806178 -1.36852,-1.751446 -2.48219,-3.521115 -2.47484,-3.932597 0.007,-0.411484 0.30231,-0.328938 0.65544,0.183436 0.82299,1.194117 8.9442,6.736646 8.9442,6.104198 0,-0.262032 -1.43437,-2.148908 -3.18751,-4.193059 -2.09769,-2.445912 -1.5001,-2.024861 1.74782,1.231496 5.7612,5.776152 6.62683,5.205889 1.23952,-0.816584 -2.27226,-2.540172 -2.70996,-3.290024 -1.13635,-1.946773 3.60005,3.073053 5.52958,5.292228 7.09918,8.164885 0.74663,1.366457 1.58268,2.259286 1.8579,1.984064 0.27523,-0.275222 -0.54587,-2.081437 -1.82465,-4.01381 -3.07734,-4.650169 -2.16853,-4.508865 1.29089,0.200713 2.03379,2.768737 2.56547,3.158013 2.08883,1.529343 -0.35166,-1.201627 -1.50644,-3.364555 -2.56617,-4.806508 -2.66506,-3.626277 -3.60554,-5.648945 -1.54107,-3.314327 0.93826,1.061025 1.90244,1.73262 2.14262,1.492433 0.41896,-0.418965 3.36656,2.836913 5.69702,6.292852 1.00253,1.486699 1.02372,1.46124 0.21847,-0.262431 -1.17739,-2.520262 -1.12498,-3.13719 0.20064,-2.362061 0.60081,0.351313 0.40418,-0.148018 -0.43696,-1.109625 -0.84114,-0.961607 -1.51336,-2.11067 -1.49383,-2.553475 0.0196,-0.442803 1.21947,0.571312 2.66651,2.253589 1.44704,1.682278 2.34738,2.305971 2.00074,1.385983 -0.4733,-1.256176 -0.34201,-1.494573 0.52722,-0.957361 0.77587,0.479518 0.94898,0.37803 0.52508,-0.30785 -0.3478,-0.562756 -0.9459,-0.829421 -1.3291,-0.59259 -0.3832,0.236832 -1.40013,-0.346643 -2.25984,-1.29661 -1.40039,-1.547425 -1.2019,-2.11612 0.64264,-1.841187 0.34319,0.05115 0.40177,-0.590481 0.13018,-1.425854 -0.27159,-0.835372 1.3156,0.326233 3.52709,2.581345 2.21149,2.255113 4.03483,3.631522 4.05187,3.058687 0.017,-0.572834 0.54713,-0.110537 1.17801,1.027327 0.98358,1.774001 1.22694,1.860665 1.70759,0.6081 0.31616,-0.823913 -0.38273,-3.322209 -1.60311,-5.730503 -2.04962,-4.044738 -2.07313,-4.252324 -0.44607,-3.93898 0.94466,0.181926 1.94965,-0.04473 2.23329,-0.503673 0.28366,-0.458948 0.98012,-0.544149 1.54773,-0.189336 2.02283,1.264489 3.36877,1.040191 2.79348,-0.465526 -0.33997,-0.889765 0.23212,-0.613467 1.4617,0.705956 1.11115,1.192343 1.93937,2.418234 1.84047,2.724202 -0.0989,0.305966 0.88425,1.493341 2.18478,2.638609 l 2.36458,2.082306 -2.11863,-2.403254 c -2.75349,-3.123395 -1.81387,-3.047202 2.69427,0.218478 5.50742,3.989554 5.97871,3.140785 1.0918,-1.966299 -6.69381,-6.995388 -7.52195,-8.689623 -1.49508,-3.058687 2.95807,2.763742 5.6362,5.024986 5.95141,5.024986 1.03967,0 -3.26871,-6.484039 -6.91368,-10.404995 l -3.57963,-3.850666 3.75209,2.935065 c 2.06367,1.614286 4.50883,4.159478 5.43374,5.655985 2.26233,3.660534 5.24711,6.365144 5.19533,4.707668 -0.0777,-2.485729 -2.44664,-7.874873 -4.84242,-11.015901 -2.24835,-2.947734 -2.28514,-3.105059 -0.42075,-1.799189 2.25975,1.582786 7.03973,8.371433 7.04561,10.006337 0.002,0.572448 0.39581,1.283127 0.87501,1.579287 1.8838,1.16425 -4.29934,-11.781733 -7.30352,-15.291802 l -1.8699,-2.184776 2.48601,2.184776 c 1.3673,1.201627 4.27076,4.83928 6.45213,8.083672 2.18137,3.244393 4.12825,5.898897 4.3264,5.898897 0.87062,0 -0.95055,-6.715742 -2.23287,-8.233893 -0.78026,-0.92376 -0.91131,-1.382384 -0.29124,-1.019164 0.84919,0.497424 1.00965,0.04925 0.65021,-1.816079 l -0.47721,-2.476478 1.01972,2.606547 c 0.56085,1.4336 1.91638,3.311842 3.01227,4.173871 1.09589,0.862029 2.22989,2.315188 2.52,3.229243 0.44728,1.409283 1.61754,1.721866 7.69837,2.056286 7.49526,0.412207 20.61393,2.653855 24.00098,4.101156 1.77694,0.7593 1.95109,1.36632 1.74782,6.092148 -0.14423,3.352946 -0.64036,5.408049 -1.37356,5.689658 -0.63128,0.242461 -0.90804,0.82875 -0.61503,1.302861 0.87453,1.41499 -1.22426,4.430025 -7.0203,10.085165 -3.01227,2.93903 -6.07239,6.76902 -6.80027,8.51108 -2.8322,6.77842 -13.72417,11.2437 -16.51717,6.77139 -1.48231,-2.37354 -2.07157,-2.24299 -6.59076,1.46015 l -3.9149,3.20797 4.8854,2.47034 c 2.68697,1.35869 5.30685,3.25781 5.82194,4.22027 0.5385,1.0062 1.8301,1.74993 3.03899,1.74993 1.15635,0 2.3455,0.39326 2.64256,0.87391 0.29706,0.48065 1.22946,0.87391 2.072,0.87391 3.27648,0 7.05924,8.45735 4.49233,10.04378 -0.49538,0.30617 -0.64189,-0.0447 -0.34345,-0.82233 0.81625,-2.12713 -0.33376,-4.36355 -1.6725,-3.25248 -0.70318,0.58358 -1.58205,0.62464 -2.39292,0.1118 -2.29135,-1.4492 -3.17537,-0.91735 -2.79402,1.68094 0.21183,1.44326 -0.0969,2.80659 -0.72334,3.19371 -0.67405,0.41659 -0.87263,0.31901 -0.51811,-0.2546 0.77523,-1.25436 -0.27901,-3.8286 -1.30761,-3.1929 -0.45083,0.27863 -2.65908,-1.00172 -4.90722,-2.84522 -3.93711,-3.22848 -4.38452,-3.36897 -12.15769,-3.81763 -6.91483,-0.39911 -8.38509,-0.76166 -10.27001,-2.53244 l -2.19984,-2.06665 -9.41917,1.82883 c -14.55757,2.82652 -24.41292,3.91505 -31.64371,3.49509 l -6.61451,-0.38416 0.29138,4.04403 c 0.26637,3.69697 -0.0516,4.46498 -3.70424,8.949081 -2.19759,2.697782 -5.23827,5.877562 -6.75707,7.066202 -3.47116,2.7166 -2.9349,4.96967 1.18492,4.97824 2.26242,0.004 3.28262,0.61555 4.83393,2.89429 1.08147,1.58858 1.95434,3.25724 1.93972,3.70815 -0.0146,0.45091 -0.42741,0.13163 -0.91733,-0.70951 -0.48992,-0.84114 -1.34313,-1.52934 -1.89603,-1.52934 -0.73362,0 -0.72189,0.28337 0.0434,1.04869 0.57678,0.57678 1.00307,2.24813 0.94731,3.71412 -0.0558,1.46598 -0.27252,2.02235 -0.48172,1.23637 -0.20919,-0.78598 -1.44167,-1.66135 -2.73883,-1.94526 -1.29717,-0.28392 -3.21861,-0.7617 -4.26986,-1.06176 -1.82029,-0.51956 -1.86672,-0.40006 -0.97431,2.50769 0.51539,1.67928 0.64401,4.17656 0.28583,5.5495 -0.5935,2.27495 -0.84131,1.89591 -2.79526,-4.27547 -1.3477,-4.25663 -2.7726,-7.10814 -3.8364,-7.67747 -0.93081,-0.49815 -1.72514,-0.59694 -1.76519,-0.21955 -0.0401,0.3774 -0.17244,1.59104 -0.29419,2.69698 -0.12175,1.10593 -0.91639,2.67897 -1.76587,3.49564 -1.468601,1.41187 -1.523361,1.31305 -1.11417,-2.0108 0.23669,-1.9226 0.0465,-5.11848 -0.422681,-7.10195 -0.74178,-3.13604 -0.55179,-4.24306 1.456901,-8.48909 1.28593,-2.71824 3.9748,-6.349533 6.06558,-8.191483 3.23982,-2.85424 3.63767,-3.57264 2.89657,-5.23026 l -0.8591,-1.92154 -4.91141,2.47526 c -2.70128,1.3614 -13.064791,5.71072 -23.030021,9.665173 -14.83627,5.8874 -19.9024,8.36952 -27.96514,13.70136 -11.90675,7.87388 -19.95712,15.5577 -22.66105,21.62927 -2.81951,6.33108 -2.84854,19.79225 -0.0576,26.72183 4.61846,11.46727 13.88758,19.18956 28.41393,23.67222 12.37713,3.81944 22.12665,4.83339 34.28688,3.56583 21.443451,-2.23522 39.827751,-8.89462 52.418881,-18.98785 7.85723,-6.29846 11.71973,-8.25054 17.3195,-8.7531 l 4.52826,-0.40641 -4.79279,1.36306 c -6.05383,1.7217 -8.35652,3.0947 -17.3006,10.31566 -11.59944,9.36476 -22.86579,14.32191 -41.26512,18.1565 -9.565481,1.99353 -25.085891,2.7812 -32.927321,1.67109 z"
       id="path346-3"
       inkscape:label="path346-3" />
  </g>
  <g
     inkscape:groupmode="layer"
     inkscape:label="Image"
     id="g184">
    <path
       id="path346"
       style="fill:#ffff00;fill-opacity:1;stroke-width:0.873071;stroke-dasharray:none"
       d="m 179.17969,15.632812 1.87109,2.183594 c 3.00418,3.510066 9.18653,16.457218 7.30274,15.292969 -0.4792,-0.29616 -0.873,-1.007631 -0.875,-1.580078 -0.006,-1.634902 -4.78518,-8.423075 -7.04493,-10.005859 -1.86438,-1.305869 -1.82842,-1.148903 0.41993,1.798828 2.39577,3.141024 4.76605,8.529898 4.84375,11.015625 0.0518,1.657474 -2.93299,-1.046501 -5.19532,-4.707032 -0.9249,-1.496505 -3.36993,-4.041965 -5.43359,-5.65625 l -3.75391,-2.935547 3.58008,3.851563 c 3.64498,3.920952 7.95372,10.404297 6.91406,10.404297 -0.31521,0 -2.9931,-2.261652 -5.95117,-5.025391 -6.02686,-5.63093 -5.19966,-3.934834 1.49414,3.060547 4.88691,5.107079 4.41562,5.954394 -1.09179,1.964844 -4.50814,-3.265677 -5.44685,-3.342142 -2.69336,-0.21875 l 2.11914,2.404297 -2.36524,-2.082031 c -1.30053,-1.145267 -2.28444,-2.332707 -2.18554,-2.638672 0.0989,-0.305968 -0.7287,-1.532268 -1.83985,-2.72461 -1.22958,-1.319421 -1.8009,-1.594842 -1.46094,-0.705078 0.57529,1.505716 -0.77209,1.729332 -2.79492,0.464844 -0.5676,-0.354813 -1.26322,-0.269495 -1.54687,0.189453 -0.28365,0.458943 -1.28776,0.685832 -2.23242,0.503906 -1.62706,-0.313343 -1.60431,-0.107234 0.44531,3.9375 1.22038,2.408292 1.91967,4.906557 1.60351,5.730469 -0.48065,1.252564 -0.7254,1.166577 -1.70898,-0.607422 -0.63088,-1.137863 -1.16074,-1.600177 -1.17773,-1.027344 -0.017,0.572835 -1.8393,-0.803483 -4.05079,-3.058593 -2.21148,-2.25511 -3.79893,-3.417403 -3.52734,-2.582032 0.27159,0.835373 0.21233,1.476932 -0.13086,1.425782 -1.84454,-0.274933 -2.04297,0.294373 -0.64258,1.841797 0.85971,0.949966 1.87657,1.533706 2.25977,1.296874 0.3832,-0.23683 0.98228,0.02904 1.33008,0.591797 0.4239,0.68588 0.25047,0.788112 -0.52539,0.308594 -0.86923,-0.537211 -1.00065,-0.299143 -0.52735,0.957031 0.34664,0.919987 -0.55296,0.297511 -2,-1.384765 -1.44704,-1.682276 -2.64837,-2.696709 -2.66797,-2.253907 -0.0195,0.442805 0.653,1.591129 1.49414,2.552735 0.84114,0.961606 1.03831,1.460688 0.4375,1.109375 -1.32561,-0.775128 -1.37856,-0.156978 -0.20117,2.363281 0.80525,1.723669 0.78378,1.748416 -0.21875,0.261719 -2.33046,-3.455936 -5.2783,-6.711933 -5.69726,-6.292969 -0.24018,0.240187 -1.20432,-0.431163 -2.14258,-1.492187 -2.06447,-2.334616 -1.12404,-0.311821 1.54101,3.314453 1.05973,1.441951 2.21475,3.605015 2.56641,4.80664 0.47664,1.628669 -0.0541,1.239438 -2.08789,-1.529297 -3.45942,-4.709573 -4.36835,-4.851336 -1.29102,-0.201171 1.27878,1.932371 2.09945,3.73845 1.82422,4.013671 -0.27522,0.275222 -1.11079,-0.617919 -1.85742,-1.984374 -1.5696,-2.872655 -3.49956,-5.091013 -7.09961,-8.164063 -1.57361,-1.34325 -1.13554,-0.592904 1.13672,1.947266 5.3873,6.022467 4.52096,6.592552 -1.24023,0.816406 -3.24792,-3.256354 -3.84574,-3.678332 -1.74805,-1.232422 1.75314,2.044149 3.1875,3.931328 3.1875,4.193359 0,0.632448 -8.12037,-4.909399 -8.94336,-6.103515 -0.35313,-0.512374 -0.64925,-0.595078 -0.65625,-0.183594 -0.007,0.411482 1.10609,2.180196 2.47461,3.931641 1.36853,1.751443 3.1956,4.36469 4.05859,5.80664 l 1.56836,2.621094 -2.08984,-2.398438 c -2.43909,-2.798309 -7.72019,-6.777343 -8.99414,-6.777343 -0.48481,0 0.52895,1.474905 2.25195,3.277343 2.89954,3.033227 5.08789,6.322107 5.08789,7.648438 0,0.304646 -1.14308,-0.259876 -2.53906,-1.253906 -1.39599,-0.99403 -2.96949,-1.806641 -3.4961,-1.806641 -0.52661,0 -0.95703,-0.434721 -0.95703,-0.966797 0,-0.53207 -0.60956,-0.733513 -1.35547,-0.447265 -0.74592,0.286243 -1.15086,0.188481 -0.90039,-0.216797 0.47054,-0.761347 -2.4262,-3.739322 -4.73437,-4.867188 -0.72097,-0.352299 0.0658,0.56176 1.74805,2.03125 3.47045,3.03149 3.27195,3.267399 -1.17774,1.408203 -3.933,-1.643319 -4.89373,-1.671365 -2.71484,-0.07813 0.9277,0.678355 1.96039,1.066872 2.29297,0.861328 0.33257,-0.205543 0.82957,-0.0089 1.10547,0.4375 0.75106,1.215252 -3.60553,0.515296 -5.38672,-0.865234 -1.37288,-1.064058 -1.36618,-0.984784 0.0664,0.697266 2.50136,2.936926 0.99738,3.937733 -2.73242,1.818359 l -3.25195,-1.849609 3.61133,3.859375 c 1.98662,2.122163 4.08588,4.780994 4.66406,5.908203 0.86477,1.685958 0.1468,1.386997 -4.04883,-1.679688 -2.80514,-2.050331 -4.3964,-2.922662 -3.53516,-1.939453 1.52626,1.742383 1.51087,1.78711 -0.63867,1.78711 -1.21298,0 -2.02676,-0.287619 -1.80859,-0.640625 0.21816,-0.353014 -0.57543,-0.534737 -1.76367,-0.404297 -1.18824,0.130431 -2.16016,-0.0799 -2.16016,-0.466797 0,-0.386907 -0.58957,-0.93037 -1.31055,-1.207031 -2.04123,-0.783299 -1.59534,0.04714 2.29493,4.267578 3.9948,4.333845 3.93483,4.757139 -0.3086,2.169922 -4.618006,-2.815598 -4.747246,-2.007607 -0.17383,1.08789 2.30793,1.562119 4.37585,3.431365 4.59571,4.152344 0.29194,0.957309 -0.16415,0.841874 -1.69336,-0.427734 -1.15169,-0.956299 -1.80079,-1.385535 -1.44336,-0.953125 1.02638,1.241708 -2.69435,3.459598 -3.99414,2.380859 -1.66852,-1.384739 -6.028508,-2.896893 -5.394534,-1.871094 0.76121,1.231659 -0.72184,1.081553 -2.207031,-0.222656 -0.684189,-0.600809 -0.504442,-0.206459 0.398437,0.875 1.615324,1.934828 3.736262,2.798205 2.681641,1.091797 -1.05462,-1.706408 1.066317,-0.843021 2.681641,1.091797 0.902876,1.081459 1.080676,1.475809 0.396486,0.875 -2.06927,-1.817098 -3.030539,-1.224427 -1.248049,0.769531 1.085894,1.214729 -0.08843,0.745879 -3.378906,-1.349609 -2.774549,-1.766929 -5.437161,-2.971731 -5.916016,-2.675782 -0.478855,0.29594 1.004772,2.296355 3.296875,4.445313 l 4.167969,3.908203 -3.679687,-1.785156 c -4.20941,-2.041178 -6.917327,-2.214105 -11.791016,-0.753907 -3.357633,1.005969 -3.390035,1.056183 -1.425781,2.107422 1.334269,0.71408 2.527941,0.799216 3.546875,0.253907 1.629536,-0.8721 6.095378,0.88578 7.332031,2.886718 0.355904,0.57587 -0.747226,0.185912 -2.451172,-0.867187 -4.188867,-2.588868 -5.226504,-2.411484 -2.017578,0.345703 l 2.621094,2.253906 -2.75586,-1.820312 C 82.51069,67.748351 81.868535,68.066443 84.798828,71.125 c 1.381477,1.441959 2.13855,2.623047 1.683594,2.623047 -0.454957,0 -1.266067,-0.688158 -1.802734,-1.529297 -0.536669,-0.841139 -2.302114,-2.274065 -3.923829,-3.183594 l -2.949218,-1.654297 3.496093,3.689453 3.496094,3.689454 -4.675781,-3.128907 c -5.094769,-3.407816 -5.247205,-3.458436 -7.019531,-2.335937 -0.960502,0.608329 -0.854215,0.87711 0.517578,1.3125 0.948785,0.30113 2.672592,1.599174 3.830078,2.882812 l 2.103516,2.333985 -2.521485,-1.91211 c -3.754672,-2.847477 -4.410381,-2.311412 -1.134765,0.927735 1.5797,1.562108 2.022584,2.13652 0.984374,1.27539 -1.038209,-0.861139 -3.418724,-2.006922 -5.289062,-2.544922 -3.244482,-0.933259 -3.299309,-1.007472 -1.214844,-1.638671 2.015698,-0.61037 1.97117,-0.653388 -0.5625,-0.554688 -2.676602,0.10427 -2.709503,0.154036 -1.310547,2.021485 0.789431,1.053798 1.67836,1.769323 1.97461,1.589843 0.553113,-0.335069 2.579408,1.738814 3.832031,3.919922 0.507594,0.883849 0.38229,1.026828 -0.451172,0.511719 -0.840877,-0.51969 -1.00583,-0.316412 -0.599609,0.742187 0.517927,1.349719 0.401273,1.352784 -1.591797,0.04687 -1.183443,-0.775429 -2.697164,-1.200932 -3.363281,-0.945312 -0.666117,0.25561 -1.744302,0.0047 -2.396485,-0.558594 -0.652183,-0.563259 -0.208097,0.107296 0.986328,1.490234 l 2.171875,2.513672 -2.796875,-1.421875 c -3.479887,-1.769358 -4.641028,-1.83637 -2.396484,-0.138671 1.957921,1.480888 0.643678,1.725366 -2.615234,0.486328 -3.805565,-1.446869 -2.473,-0.205992 1.816406,1.691406 l 4.058594,1.794922 -2.041016,1.771484 c -1.122733,0.973739 -2.556663,1.573361 -3.185547,1.332031 -0.628883,-0.241319 -1.142578,0.09553 -1.142578,0.75 0,1.558259 -2.014935,2.297646 -3.574219,1.310547 -0.677388,-0.428819 -2.411564,-0.771665 -3.853515,-0.759765 l -2.623047,0.02344 2.404297,1.302734 c 1.321787,0.71708 2.402343,1.496339 2.402343,1.730469 0,0.23413 -1.080556,0.173737 -2.402343,-0.132812 -2.331741,-0.54078 -2.352062,-0.515234 -0.65625,0.859375 l 1.748047,1.417968 -1.748047,-0.580078 C 51.50159,93.828395 50.992477,93.87587 51.330078,94.25 c 0.91373,1.012589 -1.903482,3.4664 -4.017578,3.5 -1.111233,0.01765 -1.844263,0.60204 -1.851562,1.474609 -0.0066,0.794411 -3.353966,4.923361 -7.4375,9.175781 -9.112976,9.48987 -14.852909,17.48904 -17.322266,24.13867 -5.564056,14.98322 -1.664587,33.26626 9.769531,45.80274 3.547421,3.88941 6.199504,5.73807 12.378906,8.625 8.273808,3.86542 18.768849,6.98363 27.810547,8.26367 7.841418,1.11011 23.362246,0.3236 32.927734,-1.66992 18.39931,-3.83459 29.66424,-8.7915 41.26367,-18.15625 8.94407,-7.22096 13.91049,-12.382 20.13282,-11.43555 l 2.57226,0.39258 h 0.0195 c 0.051,0.0247 0.0898,0.0527 0.14453,0.0762 0.352,0.16 0.94339,0.32047 1.77539,0.48047 0.848,0.16 1.51219,0.24023 1.99219,0.24023 1.856,0 3.38399,-0.47201 4.58399,-1.41601 1.21599,-0.928 1.82421,-2.36832 1.82421,-4.32031 v -10.67969 c 0,-0.432 -0.1362,-0.78464 -0.4082,-1.05664 -0.272,-0.272 -0.6172,-0.40821 -1.0332,-0.40821 -0.416,0 -0.75925,0.1456 -1.03125,0.4336 -0.272,0.272 -0.40821,0.61525 -0.40821,1.03125 v 0.26367 c -0.43199,-0.48 -0.99912,-0.88861 -1.70312,-1.22461 -0.704,-0.336 -1.46525,-0.50391 -2.28125,-0.50391 -1.104,0 -2.11144,0.28924 -3.02344,0.86524 -0.896,0.56 -1.60872,1.351 -2.13672,2.375 -0.512,1.008 -0.76757,2.15164 -0.76757,3.43164 0,1.28 0.26496,2.42559 0.79296,3.43359 0.528,1.008 1.24816,1.799 2.16016,2.375 0.928,0.56 1.95227,0.83985 3.07227,0.83985 0.816,0 1.57529,-0.19961 2.27929,-0.59961 0.72,-0.4 1.25543,-0.84775 1.60742,-1.34375 v 1.15234 c 0,0.864 -0.29471,1.52819 -0.88671,1.99219 -0.576,0.48 -1.45663,0.71875 -2.64063,0.71875 -0.592,0 -1.25619,-0.14364 -1.99219,-0.43164 -0.44968,-0.16988 -0.54058,-0.19951 -0.73437,-0.26953 -0.0948,-0.0354 -0.18636,-0.0761 -0.28516,-0.10547 -0.02,-0.007 -0.14776,-0.0545 -0.15625,-0.0566 -0.144,-0.048 -0.29703,-0.0723 -0.45703,-0.0723 -0.005,0 -0.009,0.002 -0.0137,0.002 -5.44754,-0.9043 -15.71093,5.65661 -22.75195,11.30079 -12.59112,10.09322 -30.97453,16.75306 -52.417972,18.98828 -12.160219,1.26756 -21.909995,0.25303 -34.28711,-3.56641 -14.52633,-4.48265 -23.795608,-12.20462 -28.414062,-23.67187 -2.790909,-6.92958 -2.762857,-20.39159 0.05664,-26.72266 2.70393,-6.07156 10.755368,-13.75503 22.66211,-21.62891 8.062736,-5.33183 13.128587,-7.81377 27.964843,-13.70117 9.965227,-3.954448 20.328011,-8.304626 23.029301,-9.666014 l 4.91211,-2.47461 0.85937,1.921875 c 0.7411,1.657619 0.34333,2.376222 -2.89648,5.230469 -2.09078,1.841948 -4.78048,5.47317 -6.06641,8.19141 -2.008696,4.24602 -2.198813,5.35224 -1.457031,8.48828 0.469157,1.98347 0.660516,5.17896 0.423828,7.10156 -0.409191,3.32385 -0.355327,3.42359 1.113283,2.01172 0.84948,-0.81667 1.64387,-2.39017 1.76562,-3.4961 0.12175,-1.10593 0.25483,-2.31986 0.29492,-2.69726 0.0401,-0.37739 0.83482,-0.27745 1.76563,0.2207 1.0638,0.56933 2.48824,3.42111 3.83594,7.67774 1.95395,6.17137 2.20142,6.55034 2.79492,4.27539 0.35818,-1.37294 0.23023,-3.87151 -0.28516,-5.55078 -0.89241,-2.90775 -0.84568,-3.02738 0.97461,-2.50782 1.05125,0.30006 2.97237,0.77858 4.26953,1.0625 1.29716,0.28391 2.5291,1.15934 2.73829,1.94532 0.20919,0.78598 0.42662,0.22965 0.48242,-1.23633 0.0558,-1.46599 -0.37049,-3.13807 -0.94727,-3.71485 -0.76529,-0.76531 -0.77854,-1.04882 -0.0449,-1.04882 0.5529,0 1.40656,0.68815 1.89648,1.52929 0.48992,0.84114 0.90337,1.16185 0.91797,0.71094 0.0146,-0.45091 -0.85798,-2.12041 -1.93945,-3.70898 -1.55131,-2.27874 -2.57157,-2.89054 -4.83399,-2.89454 -4.11981,-0.009 -4.6567,-2.26191 -1.18554,-4.97851 1.5188,-1.18864 4.56022,-4.36863 6.75781,-7.06641 3.65264,-4.484105 3.9695,-5.252249 3.70313,-8.949216 l -0.29102,-4.042968 6.61523,0.384765 c 7.23079,0.41996 17.08503,-0.669586 31.64258,-3.496093 l 9.41992,-1.828126 2.19922,2.066407 c 1.88492,1.770778 3.35666,2.13213 10.27149,2.53125 7.77316,0.448659 8.21914,0.589892 12.15625,3.818359 2.24814,1.843508 4.45737,3.124333 4.9082,2.845703 1.0286,-0.635709 2.08187,1.939001 1.30664,3.19336 -0.35452,0.573619 -0.15452,0.670485 0.51953,0.253906 0.62644,-0.38713 0.93449,-1.750091 0.72266,-3.193359 -0.38135,-2.598278 0.50162,-3.13083 2.79297,-1.681641 0.81087,0.512849 1.69135,0.472251 2.39453,-0.111328 1.33874,-1.111059 2.48812,1.124825 1.67187,3.251953 -0.29844,0.777629 -0.15163,1.128435 0.34375,0.822266 2.56691,-1.586439 -1.21571,-10.042969 -4.49218,-10.042969 -0.84254,0 -1.77521,-0.394351 -2.07227,-0.875 -0.29706,-0.48065 -1.48623,-0.873047 -2.64258,-0.873047 -1.20889,0 -2.50056,-0.743811 -3.03906,-1.75 -0.51509,-0.962469 -3.1353,-2.862025 -5.82227,-4.220703 l -4.88476,-2.470703 3.91406,-3.207032 c 4.51919,-3.703146 5.10949,-3.834475 6.5918,-1.460937 2.793,4.472295 13.68343,0.0069 16.51562,-6.771485 0.72788,-1.742068 3.78852,-5.570738 6.80078,-8.509765 5.79604,-5.655124 7.89601,-8.670949 7.02149,-10.085938 -0.29301,-0.47411 -0.018,-1.060273 0.61328,-1.302734 0.7332,-0.281609 1.23077,-2.33651 1.375,-5.689453 0.20327,-4.725823 0.0289,-5.332498 -1.74805,-6.091797 -3.38704,-1.4473 -16.5067,-3.689356 -24.00195,-4.101563 -6.08082,-0.334419 -7.24999,-0.647359 -7.69727,-2.05664 -0.29011,-0.914054 -1.42364,-2.366488 -2.51953,-3.228516 -1.09589,-0.862028 -2.45282,-2.740229 -3.01367,-4.173828 l -1.01953,-2.607422 0.47656,2.476563 c 0.35944,1.865327 0.20075,2.31383 -0.64843,1.816406 -0.62007,-0.36322 -0.48925,0.09577 0.29101,1.019531 1.28232,1.51815 3.10304,8.232422 2.23242,8.232422 -0.19815,0 -2.1448,-2.654048 -4.32617,-5.898437 -2.18137,-3.244389 -5.08583,-6.882359 -6.45312,-8.083985 z M 72.056641,142.59766 c -0.416,0 -0.761204,0.14364 -1.033203,0.43164 -0.272,0.272 -0.408204,0.6172 -0.408204,1.0332 v 4.70312 c -0.463999,-0.43199 -1.031125,-0.78268 -1.703125,-1.05468 -0.671999,-0.288 -1.392157,-0.4336 -2.160156,-0.4336 -1.071999,0 -2.055173,0.28924 -2.951172,0.86524 -0.879999,0.56 -1.575891,1.351 -2.08789,2.375 -0.512,1.008 -0.769532,2.15164 -0.769532,3.43164 0,1.28 0.257532,2.42559 0.769532,3.43359 0.527999,1.008 1.238766,1.799 2.134765,2.375 0.895999,0.56 1.896001,0.83985 3,0.83985 0.751999,0 1.46472,-0.16047 2.136719,-0.48047 0.687999,-0.336 1.23086,-0.73522 1.630859,-1.19922 0.016,0.416 0.152204,0.75925 0.408204,1.03125 0.271999,0.272 0.617203,0.4082 1.033203,0.4082 0.415999,0 0.75925,-0.1362 1.03125,-0.4082 0.271999,-0.288 0.408203,-0.63869 0.408203,-1.05469 V 144.0625 c 0,-0.432 -0.136204,-0.78464 -0.408203,-1.05664 -0.272,-0.272 -0.615251,-0.4082 -1.03125,-0.4082 z m -14.785157,0.5039 c -0.527999,0 -0.912344,0.0877 -1.152343,0.26367 -0.24,0.176 -0.359375,0.4895 -0.359375,0.9375 v 0.45508 c 0,0.448 0.111937,0.75955 0.335937,0.93555 0.224,0.176 0.608344,0.26562 1.152344,0.26562 0.559999,0 0.951781,-0.0802 1.175781,-0.24023 0.24,-0.176 0.359375,-0.49694 0.359375,-0.96094 v -0.45508 c 0,-0.448 -0.111938,-0.7615 -0.335937,-0.9375 -0.224,-0.176 -0.615782,-0.26367 -1.175782,-0.26367 z m -16.511718,0.45703 c -0.448,0 -0.815516,0.14364 -1.103516,0.43164 -0.288,0.272 -0.431641,0.61525 -0.431641,1.03125 v 13.87305 c 0,0.416 0.136204,0.76669 0.408203,1.05469 0.288,0.272 0.648079,0.4082 1.080079,0.4082 0.399999,0 0.750687,-0.1362 1.054687,-0.4082 0.304,-0.288 0.457031,-0.63869 0.457031,-1.05469 v -13.87305 c 0,-0.416 -0.143641,-0.75925 -0.43164,-1.03125 -0.288,-0.288 -0.633204,-0.43164 -1.033203,-0.43164 z m 120.240234,0 c -0.448,0 -0.81552,0.14364 -1.10352,0.43164 -0.288,0.272 -0.43164,0.61525 -0.43164,1.03125 v 13.87305 c 0,0.416 0.13425,0.76669 0.40625,1.05469 0.288,0.272 0.64808,0.4082 1.08008,0.4082 0.4,0 0.75264,-0.1362 1.05664,-0.4082 0.304,-0.288 0.45703,-0.63869 0.45703,-1.05469 v -13.87305 c 0,-0.416 -0.14559,-0.75925 -0.43359,-1.03125 -0.288,-0.288 -0.63125,-0.43164 -1.03125,-0.43164 z m -15.59961,1.19922 c -0.416,0 -0.76864,0.14364 -1.05664,0.43164 -0.272,0.272 -0.4082,0.61721 -0.4082,1.03321 v 1.53515 h -1.10352 c -0.384,0 -0.70494,0.12877 -0.96094,0.38477 -0.256,0.24 -0.38281,0.54411 -0.38281,0.91211 0,0.384 0.12681,0.70298 0.38281,0.95898 0.256,0.256 0.57694,0.38477 0.96094,0.38477 h 1.10352 v 6.62304 c 0,1.376 0.33581,2.2809 1.00781,2.7129 0.688,0.41599 1.52948,0.62304 2.52148,0.62304 0.592,0 1.11999,-0.14364 1.58399,-0.43164 0.48,-0.304 0.71875,-0.67151 0.71875,-1.10351 0,-0.352 -0.0951,-0.63185 -0.28711,-0.83985 -0.176,-0.224 -0.37561,-0.33594 -0.59961,-0.33594 -0.176,0 -0.36074,0.0392 -0.55274,0.11914 -0.22399,0.064 -0.39934,0.0957 -0.52734,0.0957 -0.304,0 -0.5447,-0.0709 -0.7207,-0.21485 -0.176,-0.16 -0.26367,-0.40814 -0.26367,-0.74414 v -6.5039 h 1.70312 c 0.384,0 0.70494,-0.12133 0.96094,-0.36133 0.256,-0.256 0.38281,-0.56755 0.38281,-0.93555 0,-0.384 -0.12681,-0.70298 -0.38281,-0.95898 -0.256,-0.256 -0.57694,-0.38477 -0.96094,-0.38477 h -1.70312 v -1.53515 c 0,-0.416 -0.13621,-0.76121 -0.40821,-1.03321 -0.272,-0.288 -0.60781,-0.43164 -1.00781,-0.43164 z m -93.144531,2.51953 c -0.783999,0 -1.519032,0.1773 -2.207031,0.5293 -0.687999,0.336 -1.215985,0.83228 -1.583984,1.48828 v -0.3125 c 0,-0.416 -0.136204,-0.7612 -0.408203,-1.0332 -0.272,-0.288 -0.617204,-0.43164 -1.033203,-0.43164 -0.416,0 -0.759251,0.14364 -1.03125,0.43164 -0.272,0.272 -0.408204,0.6172 -0.408204,1.0332 v 9.91211 c 0,0.416 0.136204,0.76669 0.408204,1.05469 0.271999,0.272 0.61525,0.4082 1.03125,0.4082 0.415999,0 0.761203,-0.1362 1.033203,-0.4082 0.271999,-0.288 0.408203,-0.63869 0.408203,-1.05469 v -5.6875 c 0,-0.72 0.119375,-1.33761 0.359375,-1.84961 0.255999,-0.528 0.574985,-0.91978 0.958984,-1.17578 0.384,-0.256 0.785172,-0.38281 1.201172,-0.38281 0.192,0 0.367344,0.0223 0.527344,0.0703 0.176,0.048 0.287937,0.0817 0.335937,0.0977 0.304,0.112 0.576407,0.16797 0.816406,0.16797 0.352,0 0.65611,-0.12133 0.91211,-0.36133 0.256,-0.256 0.384766,-0.63096 0.384766,-1.12696 -10e-7,-0.368 -0.16986,-0.68893 -0.50586,-0.96093 -0.32,-0.272 -0.719219,-0.40821 -1.199219,-0.40821 z m 29.808594,0 c -1.071999,0 -2.081391,0.27985 -3.025391,0.83985 -0.943999,0.544 -1.703297,1.33695 -2.279296,2.37695 -0.576,1.04 -0.863282,2.24705 -0.863282,3.62305 0,1.232 0.272407,2.34394 0.816407,3.33593 0.543999,0.976 1.310735,1.74469 2.302734,2.30469 1.007999,0.56 2.185298,0.83985 3.529297,0.83985 0.767999,0 1.527298,-0.12682 2.279297,-0.38282 0.751999,-0.256 1.350828,-0.5695 1.798828,-0.9375 0.447999,-0.352 0.673828,-0.74378 0.673828,-1.17578 0,-0.32 -0.121328,-0.59984 -0.361328,-0.83984 -0.24,-0.24 -0.527282,-0.35938 -0.863281,-0.35938 -0.256,0 -0.528407,0.0708 -0.816407,0.21485 -0.08,0.048 -0.231078,0.14506 -0.455078,0.28906 -0.208,0.128 -0.497234,0.25677 -0.865234,0.38477 -0.368,0.112 -0.879157,0.16796 -1.535156,0.16796 -0.864,0 -1.640126,-0.26496 -2.328125,-0.79296 -0.688,-0.544 -1.128313,-1.28843 -1.320313,-2.23243 h 7.919922 c 0.384,0 0.719813,-0.11937 1.007813,-0.35937 0.287999,-0.24 0.441031,-0.55155 0.457031,-0.93555 0,-1.136 -0.279845,-2.19197 -0.839844,-3.16797 -0.559999,-0.976 -1.313813,-1.75212 -2.257813,-2.32812 -0.927999,-0.576 -1.91861,-0.86524 -2.974609,-0.86524 z m 12.671875,0 c -0.799999,0 -1.561251,0.16047 -2.28125,0.48047 -0.703999,0.304 -1.278563,0.74432 -1.726562,1.32031 -0.432,0.56 -0.648438,1.22419 -0.648438,1.99219 0,0.88 0.207047,1.58333 0.623047,2.11133 0.432,0.512 0.937672,0.89634 1.513672,1.15234 0.591999,0.256 1.351298,0.51158 2.279297,0.76758 0.895999,0.24 1.55275,0.48071 1.96875,0.72071 0.431999,0.24 0.646484,0.59264 0.646484,1.05664 0,0.896 -0.623095,1.36801 -1.871094,1.41601 -0.735999,0 -1.368485,-0.12133 -1.896484,-0.36133 -0.511999,-0.24 -1.008282,-0.60751 -1.488281,-1.10351 -0.304,-0.304 -0.622985,-0.45508 -0.958985,-0.45508 -0.239999,0 -0.473265,0.0708 -0.697265,0.21484 -0.416,0.288 -0.623047,0.64064 -0.623047,1.05664 0,0.288 0.07084,0.52675 0.214844,0.71875 0.575999,0.784 1.320422,1.35308 2.232422,1.70508 0.911999,0.352 1.897126,0.52735 2.953124,0.52735 0.768,0 1.51047,-0.15108 2.230469,-0.45508 0.736,-0.304 1.336782,-0.74431 1.800781,-1.32031 0.464,-0.592 0.695313,-1.28046 0.695313,-2.06446 0,-0.864 -0.19961,-1.55989 -0.599609,-2.08789 -0.4,-0.528 -0.886892,-0.91978 -1.462891,-1.17578 -0.575999,-0.256 -1.296157,-0.50414 -2.160156,-0.74414 -0.624,-0.176 -1.112844,-0.31964 -1.464844,-0.43164 -0.336,-0.128 -0.615844,-0.29591 -0.839844,-0.50391 -0.224,-0.224 -0.335937,-0.51323 -0.335937,-0.86523 0,-0.88 0.60822,-1.31836 1.824218,-1.31836 0.576,0 1.087157,0.10255 1.535157,0.31055 0.463999,0.208 0.840906,0.48784 1.128906,0.83984 0.224,0.224 0.511282,0.33594 0.863281,0.33594 0.288,0 0.545532,-0.0877 0.769532,-0.26367 0.303999,-0.24 0.455078,-0.54411 0.455078,-0.91211 0,-0.32 -0.104501,-0.60729 -0.3125,-0.86329 -0.464,-0.59199 -1.103923,-1.03975 -1.919922,-1.34374 -0.815999,-0.304 -1.631267,-0.45704 -2.447266,-0.45704 z m 12.958982,0 c -1.216,0 -2.30367,0.28924 -3.26367,0.86524 -0.96,0.56 -1.71186,1.34356 -2.25586,2.35156 -0.528,1.008 -0.79101,2.15908 -0.79101,3.45508 0,1.248 0.25557,2.3842 0.76757,3.4082 0.512,1.008 1.23216,1.80096 2.16016,2.37696 0.944,0.57599 2.03167,0.86328 3.26367,0.86328 0.832,0 1.61557,-0.0951 2.35156,-0.28711 0.736,-0.208 1.3274,-0.48041 1.77539,-0.81641 0.448,-0.336 0.67383,-0.69608 0.67383,-1.08008 0,-0.4 -0.12133,-0.72837 -0.36133,-0.98437 -0.22399,-0.256 -0.53554,-0.38281 -0.93554,-0.38281 -0.208,0 -0.38335,0.0317 -0.52735,0.0957 -0.144,0.064 -0.30446,0.15911 -0.48046,0.28711 -0.16,0.112 -0.28877,0.19223 -0.38477,0.24023 -0.384,0.192 -0.96795,0.28906 -1.75195,0.28906 -1.072,0 -1.95068,-0.3769 -2.63867,-1.1289 -0.688,-0.768 -1.03321,-1.72886 -1.03321,-2.88086 0,-1.2 0.33582,-2.16635 1.00781,-2.90234 0.688,-0.752 1.63204,-1.12891 2.83204,-1.12891 0.192,0 0.44014,0.0317 0.74414,0.0957 0.32,0.064 0.5607,0.1368 0.7207,0.2168 0.144,0.08 0.28764,0.1845 0.43164,0.3125 0.16,0.112 0.32047,0.20711 0.48047,0.28711 0.16,0.064 0.36705,0.0957 0.62305,0.0957 0.336,0 0.6084,-0.12681 0.8164,-0.38281 0.208,-0.272 0.3125,-0.5855 0.3125,-0.9375 0,-0.704 -0.41605,-1.26369 -1.24804,-1.67969 -0.832,-0.432 -1.92907,-0.64844 -3.28907,-0.64844 z m 12.2168,0 c -1.072,0 -2.07944,0.27985 -3.02344,0.83985 -0.944,0.544 -1.70525,1.33695 -2.28125,2.37695 -0.576,1.04 -0.86328,2.24705 -0.86328,3.62305 0,1.232 0.27241,2.34394 0.81641,3.33593 0.544,0.976 1.31073,1.74469 2.30273,2.30469 1.008,0.56 2.1853,0.83985 3.5293,0.83985 0.768,0 1.5273,-0.12682 2.2793,-0.38282 0.75199,-0.256 1.35278,-0.5695 1.80078,-0.9375 0.448,-0.352 0.67187,-0.74378 0.67187,-1.17578 0,-0.32 -0.12133,-0.59984 -0.36133,-0.83984 -0.24,-0.24 -0.52728,-0.35938 -0.86328,-0.35938 -0.256,0 -0.5284,0.0708 -0.8164,0.21485 -0.08,0.048 -0.23108,0.14506 -0.45508,0.28906 -0.208,0.128 -0.49724,0.25677 -0.86524,0.38477 -0.368,0.112 -0.87915,0.16796 -1.53515,0.16796 -0.864,0 -1.64013,-0.26496 -2.32813,-0.79296 -0.688,-0.544 -1.12831,-1.28843 -1.32031,-2.23243 h 7.91992 c 0.384,0 0.71981,-0.11937 1.00781,-0.35937 0.288,-0.24 0.44104,-0.55155 0.45704,-0.93555 -1e-5,-1.136 -0.27985,-2.19197 -0.83985,-3.16797 -0.56,-0.976 -1.31186,-1.75212 -2.25586,-2.32812 -0.928,-0.576 -1.92056,-0.86524 -2.97656,-0.86524 z m 15.33594,0 c -0.832,0 -1.60069,0.209 -2.30469,0.625 -0.688,0.416 -1.24769,0.91229 -1.67969,1.48828 v -0.4082 c 0,-0.416 -0.1362,-0.7612 -0.4082,-1.0332 -0.272,-0.288 -0.61525,-0.43164 -1.03125,-0.43164 -0.416,0 -0.7612,0.14364 -1.0332,0.43164 -0.272,0.272 -0.40625,0.6172 -0.40625,1.0332 v 9.91211 c 0,0.416 0.13425,0.76669 0.40625,1.05469 0.272,0.272 0.6172,0.4082 1.0332,0.4082 0.416,0 0.75925,-0.1362 1.03125,-0.4082 0.272,-0.288 0.4082,-0.63869 0.4082,-1.05469 V 152.75 c 0,-0.816 0.26497,-1.48763 0.79297,-2.01562 0.528,-0.544 1.2556,-0.81641 2.18359,-0.81641 0.896,0 1.52849,0.25558 1.89649,0.76758 0.368,0.496 0.55078,1.18445 0.55078,2.06445 v 6.14453 c 0,0.416 0.1362,0.76669 0.4082,1.05469 0.272,0.272 0.61721,0.4082 1.03321,0.4082 0.416,0 0.75925,-0.1362 1.03125,-0.4082 0.272,-0.288 0.4082,-0.63869 0.4082,-1.05469 V 152.75 c 0,-1.712 -0.31155,-3.04781 -0.93555,-4.00781 -0.624,-0.976 -1.75276,-1.46485 -3.38476,-1.46485 z m 64.75195,0 c -1.072,0 -2.05517,0.28924 -2.95117,0.86524 -0.88,0.56 -1.57589,1.351 -2.08789,2.375 -0.512,1.008 -0.76953,2.15164 -0.76953,3.43164 0,1.28 0.25753,2.42559 0.76953,3.43359 0.528,1.008 1.23876,1.799 2.13476,2.375 0.896,0.56 1.896,0.83985 3,0.83985 0.752,0 1.46472,-0.16047 2.13672,-0.48047 0.688,-0.336 1.23086,-0.73522 1.63086,-1.19922 0.016,0.416 0.1522,0.75925 0.4082,1.03125 0.272,0.272 0.61721,0.4082 1.03321,0.4082 0.416,0 0.75925,-0.1362 1.03125,-0.4082 0.272,-0.288 0.4082,-0.63869 0.4082,-1.05469 v -10.15234 c 0,-0.432 -0.1362,-0.78464 -0.4082,-1.05664 -0.272,-0.272 -0.61525,-0.40821 -1.03125,-0.40821 -0.416,0 -0.76121,0.1456 -1.03321,0.4336 -0.272,0.272 -0.4082,0.61525 -0.4082,1.03125 v 0.0234 c -0.464,-0.43199 -1.03112,-0.78268 -1.70312,-1.05468 -0.672,-0.288 -1.39216,-0.4336 -2.16016,-0.4336 z m 16.72852,0 c -0.832,0 -1.60069,0.209 -2.30469,0.625 -0.688,0.416 -1.24769,0.91229 -1.67969,1.48828 v -0.4082 c 0,-0.416 -0.1362,-0.7612 -0.4082,-1.0332 -0.272,-0.288 -0.61525,-0.43164 -1.03125,-0.43164 -0.416,0 -0.76121,0.14364 -1.03321,0.43164 -0.272,0.272 -0.4082,0.6172 -0.4082,1.0332 v 9.91211 c 0,0.416 0.1362,0.76669 0.4082,1.05469 0.272,0.272 0.61721,0.4082 1.03321,0.4082 0.416,0 0.75925,-0.1362 1.03125,-0.4082 0.272,-0.288 0.4082,-0.63869 0.4082,-1.05469 V 152.75 c 0,-0.816 0.26302,-1.48763 0.79102,-2.01562 0.528,-0.544 1.25754,-0.81641 2.18554,-0.81641 0.896,0 1.52653,0.25558 1.89453,0.76758 0.368,0.496 0.55274,1.18445 0.55274,2.06445 v 6.14453 c 0,0.416 0.1362,0.76669 0.4082,1.05469 0.272,0.272 0.61525,0.4082 1.03125,0.4082 0.416,0 0.76121,-0.1362 1.0332,-0.4082 0.272,-0.288 0.40821,-0.63869 0.40821,-1.05469 V 152.75 c 0,-1.712 -0.3135,-3.04781 -0.9375,-4.00781 -0.624,-0.976 -1.75082,-1.46485 -3.38281,-1.46485 z m 12.52734,0 c -1.072,0 -2.05517,0.28924 -2.95117,0.86524 -0.88,0.56 -1.57589,1.351 -2.08789,2.375 -0.512,1.008 -0.76953,2.15164 -0.76953,3.43164 0,1.28 0.25753,2.42559 0.76953,3.43359 0.528,1.008 1.23876,1.799 2.13476,2.375 0.896,0.56 1.896,0.83985 3,0.83985 0.752,0 1.46472,-0.16047 2.13672,-0.48047 0.688,-0.336 1.23086,-0.73522 1.63086,-1.19922 0.016,0.416 0.1522,0.75925 0.4082,1.03125 0.272,0.272 0.61721,0.4082 1.03321,0.4082 0.416,0 0.75925,-0.1362 1.03125,-0.4082 0.272,-0.288 0.4082,-0.63869 0.4082,-1.05469 v -10.15234 c 0,-0.432 -0.1362,-0.78464 -0.4082,-1.05664 -0.272,-0.272 -0.61525,-0.40821 -1.03125,-0.40821 -0.416,0 -0.76121,0.1456 -1.03321,0.4336 -0.272,0.272 -0.4082,0.61525 -0.4082,1.03125 v 0.0234 c -0.464,-0.43199 -1.03113,-0.78268 -1.70312,-1.05468 -0.672,-0.288 -1.39216,-0.4336 -2.16016,-0.4336 z m -171.984376,0.24024 c -0.415999,0 -0.75925,0.14364 -1.03125,0.43164 -0.271999,0.272 -0.408203,0.6172 -0.408203,1.0332 v 9.91211 c 0,0.416 0.136204,0.76669 0.408203,1.05469 0.272,0.272 0.615251,0.4082 1.03125,0.4082 0.416,0 0.761204,-0.1362 1.033204,-0.4082 0.271999,-0.288 0.408203,-0.63869 0.408203,-1.05469 v -9.91211 c 0,-0.416 -0.136204,-0.7612 -0.408203,-1.0332 -0.272,-0.288 -0.617204,-0.43164 -1.033204,-0.43164 z m 124.992186,0 c -0.416,0 -0.75925,0.14364 -1.03125,0.43164 -0.272,0.272 -0.4082,0.6172 -0.4082,1.0332 v 6.0957 c 0,1.728 0.47202,3.08065 1.41601,4.05665 0.944,0.97599 2.29665,1.46289 4.05665,1.46289 1.75999,0 3.11068,-0.4869 4.05468,-1.46289 0.96,-0.976 1.44141,-2.32865 1.44141,-4.05665 v -6.0957 c 0,-0.416 -0.1362,-0.7612 -0.4082,-1.0332 -0.272,-0.288 -0.61721,-0.43164 -1.03321,-0.43164 -0.416,0 -0.75925,0.14364 -1.03125,0.43164 -0.272,0.272 -0.4082,0.6172 -0.4082,1.0332 v 6.0957 c 0,0.976 -0.21644,1.7036 -0.64844,2.1836 -0.432,0.464 -1.0868,0.69726 -1.96679,0.69726 -0.864,0 -1.51332,-0.23326 -1.94532,-0.69726 -0.432,-0.48 -0.64844,-1.2076 -0.64844,-2.1836 v -6.0957 c 10e-6,-0.416 -0.13425,-0.7612 -0.40624,-1.0332 -0.272,-0.288 -0.61721,-0.43164 -1.03321,-0.43164 z m -115.056639,2.40039 c 1.039999,0 1.888923,0.38434 2.544922,1.15234 0.655999,0.768 0.984375,1.72691 0.984375,2.87891 0,1.152 -0.328376,2.11286 -0.984375,2.88086 -0.655999,0.752 -1.504923,1.1289 -2.544922,1.1289 -1.039999,0 -1.886969,-0.3769 -2.542969,-1.1289 -0.639999,-0.768 -0.960937,-1.72886 -0.960937,-2.88086 0,-1.152 0.328376,-2.11091 0.984375,-2.87891 0.655999,-0.768 1.495532,-1.15234 2.519531,-1.15234 z m 14.857422,0 c 0.751999,0 1.423626,0.2407 2.015625,0.7207 0.592,0.48 0.920375,1.05457 0.984375,1.72656 v 0.16797 h -6.289062 c 0.335999,-1.744 1.433064,-2.61523 3.289062,-2.61523 z m 37.847657,0 c 0.752,0 1.42362,0.2407 2.01562,0.7207 0.592,0.48 0.92038,1.05457 0.98438,1.72656 v 0.16797 h -6.28906 c 0.336,-1.744 1.43306,-2.61523 3.28906,-2.61523 z m 51.57617,0 c 1.072,0 1.94324,0.38434 2.61524,1.15234 0.68799,0.768 1.0332,1.72691 1.0332,2.87891 0,1.152 -0.34521,2.11286 -1.0332,2.88086 -0.672,0.752 -1.54324,1.1289 -2.61524,1.1289 -1.072,0 -1.94519,-0.3769 -2.61719,-1.1289 -0.672,-0.768 -1.00781,-1.72886 -1.00781,-2.88086 0,-1.152 0.33581,-2.11091 1.00781,-2.87891 0.672,-0.768 1.54519,-1.15234 2.61719,-1.15234 z m 28.9668,0 c 1.04,0 1.88892,0.38434 2.54492,1.15234 0.656,0.768 0.98438,1.72691 0.98438,2.87891 0,1.152 -0.32838,2.11286 -0.98438,2.88086 -0.656,0.752 -1.50492,1.1289 -2.54492,1.1289 -1.04,0 -1.88697,-0.3769 -2.54297,-1.1289 -0.64,-0.768 -0.96094,-1.72886 -0.96094,-2.88086 0,-1.152 0.32838,-2.11091 0.98438,-2.87891 0.656,-0.768 1.49553,-1.15234 2.51953,-1.15234 z m 29.25781,0 c 1.04,0 1.88697,0.38434 2.54297,1.15234 0.656,0.768 0.98437,1.72691 0.98437,2.87891 0,1.152 -0.32837,2.11286 -0.98437,2.88086 -0.656,0.752 -1.50297,1.1289 -2.54297,1.1289 -1.04,0 -1.88892,-0.3769 -2.54492,-1.1289 -0.64,-0.768 -0.96094,-1.72886 -0.96094,-2.88086 0,-1.152 0.32838,-2.11091 0.98438,-2.87891 0.656,-0.768 1.49748,-1.15234 2.52148,-1.15234 z" />
    <text
       xml:space="preserve"
       style="font-style:normal;font-variant:normal;font-weight:bold;font-stretch:normal;font-size:36px;font-family:Quicksand;-inkscape-font-specification:'Quicksand Bold';fill:#ffff00;fill-opacity:1;stroke-width:0.873071;stroke-dasharray:none"
       x="171.19994"
       y="134.0909"
       id="text1921"><tspan
         sodipodi:role="line"
         id="tspan1919"
         x="171.19994"
         y="134.0909"
         style="font-size:36px;fill:#ffff00">1.1.0</tspan></text>
  </g>
</svg>
