<?xml version="1.0" encoding="UTF-8" standalone="no"?>
<!-- Created with Inkscape (http://www.inkscape.org/) -->

<svg
   width="256"
   height="256"
   viewBox="0 0 67.733332 67.733333"
   version="1.1"
   id="svg1"
   inkscape:version="1.3 (0e150ed6c4, 2023-07-21)"
   sodipodi:docname="magisim_logo256.svg"
   xmlns:inkscape="http://www.inkscape.org/namespaces/inkscape"
   xmlns:sodipodi="http://sodipodi.sourceforge.net/DTD/sodipodi-0.dtd"
   xmlns:xlink="http://www.w3.org/1999/xlink"
   xmlns="http://www.w3.org/2000/svg"
   xmlns:svg="http://www.w3.org/2000/svg">
  <sodipodi:namedview
     id="namedview1"
     pagecolor="#ffffff"
     bordercolor="#000000"
     borderopacity="0.25"
     inkscape:showpageshadow="2"
     inkscape:pageopacity="0.0"
     inkscape:pagecheckerboard="0"
     inkscape:deskcolor="#d1d1d1"
     inkscape:document-units="mm"
     inkscape:zoom="1.7615341"
     inkscape:cx="104.45441"
     inkscape:cy="121.48502"
     inkscape:window-width="1366"
     inkscape:window-height="690"
     inkscape:window-x="0"
     inkscape:window-y="32"
     inkscape:window-maximized="1"
     inkscape:current-layer="layer1" />
  <defs
     id="defs1">
    <linearGradient
       id="linearGradient17"
       inkscape:collect="always">
      <stop
         style="stop-color:#ff0000;stop-opacity:1;"
         offset="0.2554552"
         id="stop18" />
      <stop
         style="stop-color:#2e00ff;stop-opacity:1;"
         offset="0.75436395"
         id="stop19" />
    </linearGradient>
    <linearGradient
       id="linearGradient13"
       inkscape:collect="always">
      <stop
         style="stop-color:#ff0000;stop-opacity:1;"
         offset="0.10895345"
         id="stop13" />
      <stop
         style="stop-color:#fff500;stop-opacity:1;"
         offset="0.33679146"
         id="stop15" />
      <stop
         style="stop-color:#65ff00;stop-opacity:1;"
         offset="0.47559705"
         id="stop16" />
      <stop
         style="stop-color:#00e3fe;stop-opacity:1;"
         offset="0.70445156"
         id="stop17" />
      <stop
         style="stop-color:#2f00cb;stop-opacity:1;"
         offset="0.83851379"
         id="stop14" />
    </linearGradient>
    <clipPath
       clipPathUnits="userSpaceOnUse"
       id="clipPath11">
      <rect
         style="fill:#e6e6e6;fill-opacity:0.462424;fill-rule:nonzero;stroke-width:0.264583"
         id="rect11"
         width="51.421928"
         height="40.934181"
         x="5.3533807"
         y="46.594837" />
    </clipPath>
    <linearGradient
       inkscape:collect="always"
       xlink:href="#linearGradient13"
       id="linearGradient14"
       x1="9.0000001"
       y1="32.406378"
       x2="57.212913"
       y2="32.406378"
       gradientUnits="userSpaceOnUse" />
    <linearGradient
       inkscape:collect="always"
       xlink:href="#linearGradient17"
       id="linearGradient19"
       x1="19.958398"
       y1="42.002646"
       x2="43.601382"
       y2="42.002646"
       gradientUnits="userSpaceOnUse" />
  </defs>
  <g
     inkscape:label="Layer 1"
     inkscape:groupmode="layer"
     id="layer1">
    <path
       style="font-style:italic;font-weight:bold;font-size:79.5649px;font-family:'Liberation Mono';-inkscape-font-specification:'Liberation Mono Bold Italic';fill:url(#linearGradient14);stroke-width:0.405942"
       d="m 28.95932,33.170019 1.563608,-4.920597 c 0.595701,-3.237504 0.893551,-5.529657 0.893551,-6.876459 0,-1.243201 -0.19425,-2.123802 -0.582751,-2.641803 -0.3626,-0.518001 -0.932401,-0.777001 -1.709402,-0.777001 -1.295001,0 -2.564103,1.217302 -3.807305,3.651905 -1.243201,2.408703 -2.253303,5.607357 -3.030304,9.595962 l -4.390055,22.61073 H 9.0000001 L 15.410258,20.751363 c 0.181301,-0.880601 0.349651,-1.800053 0.505051,-2.758354 0.1813,-0.984201 0.3367,-1.903652 0.466201,-2.758353 0.1554,-0.880601 0.2849,-1.631702 0.3885,-2.253303 0.1036,-0.621601 0.1554,-1.023052 0.1554,-1.204352 h 8.119661 l -0.738151,4.933956 -0.349651,1.864803 h 0.0777 c 1.476302,-2.771304 3.004404,-4.726757 4.584307,-5.866358 C 30.199178,11.569801 31.96038,11 33.902882,11 c 2.279203,0 3.859106,0.621601 4.739707,1.864802 0.880601,1.217302 1.320901,3.056205 1.320901,5.516708 v 0.2331 h 0.0777 c 1.579902,-2.745403 3.198654,-4.700856 4.856257,-5.866358 C 46.580949,11.582751 48.510501,11 50.686104,11 c 2.279203,0 3.936806,0.595701 4.972807,1.787102 1.036001,1.191402 1.554002,3.082105 1.554002,5.672108 0,1.942502 -0.2849,4.390055 -0.854701,7.342659 l -5.439008,28.010887 h -8.857811 l 4.972806,-25.563334 c 0.595701,-3.237504 0.893552,-5.529657 0.893552,-6.876459 0,-1.243201 -0.19425,-2.123802 -0.582751,-2.641803 -0.362601,-0.518001 -0.932401,-0.777001 -1.709402,-0.777001 -1.320902,0 -2.564104,1.048951 -3.729605,3.146854 -1.165501,2.072003 -2.149703,5.192957 -2.952604,9.362862 l -1.136258,2.706144 z"
       id="text1"
       aria-label="m"
       inkscape:label="text1"
       sodipodi:nodetypes="ccscscccccccscccccsscscccsssccccscscccc" />
    <path
       style="font-style:italic;font-weight:bold;font-size:79.5649px;font-family:'Liberation Mono';-inkscape-font-specification:'Liberation Mono Bold Italic';fill:#b3b3b3;stroke-width:0.405942"
       d="m 27.433228,41.02701 3.0897,-12.777588 c 0.595701,-3.237504 0.893551,-5.529657 0.893551,-6.876459 0,-1.243201 -0.19425,-2.123802 -0.582751,-2.641803 -0.3626,-0.518001 -0.932401,-0.777001 -1.709402,-0.777001 -1.295001,0 -2.564103,1.217302 -3.807305,3.651905 -1.243201,2.408703 -2.253303,5.607357 -3.030304,9.595962 l -4.390055,22.61073 H 9.0000001 L 15.410258,20.751363 c 0.181301,-0.880601 0.349651,-1.800053 0.505051,-2.758354 0.1813,-0.984201 0.3367,-1.903652 0.466201,-2.758353 0.1554,-0.880601 0.2849,-1.631702 0.3885,-2.253303 0.1036,-0.621601 0.1554,-1.023052 0.1554,-1.204352 h 8.119661 l -0.738151,4.933956 -0.349651,1.864803 h 0.0777 c 1.476302,-2.771304 3.004404,-4.726757 4.584307,-5.866358 C 30.199178,11.569801 31.96038,11 33.902882,11 c 2.279203,0 3.859106,0.621601 4.739707,1.864802 0.880601,1.217302 1.320901,3.056205 1.320901,5.516708 v 0.2331 h 0.0777 c 1.579902,-2.745403 3.198654,-4.700856 4.856257,-5.866358 C 46.580949,11.582751 48.510501,11 50.686104,11 c 2.279203,0 3.936806,0.595701 4.972807,1.787102 1.036001,1.191402 1.554002,3.082105 1.554002,5.672108 0,1.942502 -0.2849,4.390055 -0.854701,7.342659 l -5.439008,28.010887 h -8.857811 l 4.972806,-25.563334 c 0.595701,-3.237504 0.893552,-5.529657 0.893552,-6.876459 0,-1.243201 -0.19425,-2.123802 -0.582751,-2.641803 -0.362601,-0.518001 -0.932401,-0.777001 -1.709402,-0.777001 -1.320902,0 -2.564104,1.048951 -3.729605,3.146854 -1.165501,2.072003 -2.149703,5.192957 -2.952604,9.362862 l 1.589222,8.962364 z"
       id="text1-9"
       clip-path="url(#clipPath11)"
       aria-label="m"
       sodipodi:nodetypes="ccscscccccccscccccsscscccsssccccscscccc" />
    <text
       xml:space="preserve"
       style="font-style:italic;font-variant:normal;font-weight:bold;font-stretch:normal;font-size:45.5083px;font-family:'Liberation Mono';-inkscape-font-specification:'Liberation Mono Bold Italic';fill:#00ff04;fill-opacity:1;fill-rule:nonzero;stroke-width:0.264583"
       x="18.44738"
       y="54.035236"
       id="text13"><tspan
         sodipodi:role="line"
         id="tspan13"
         style="font-size:45.5083px;fill:#00ff04;fill-opacity:1;stroke-width:0.264583"
         x="18.44738"
         y="54.035236">s</tspan></text>
  </g>
</svg>
