<svg xmlns="http://www.w3.org/2000/svg" version="1.1" width="960" height="1440" xmlns:xlink="http://www.w3.org/1999/xlink" xlink="http://www.w3.org/1999/xlink" style="position:relative;overflow:hidden;" class="cur-default"><defs><filter id="sFX_GLW.4#FFD64ASS" x="-0.5" y="-0.5" width="2" height="2"><feFlood flood-color="#FFD64A" result="flood"></feFlood><feComposite in="flood" in2="SourceAlpha" operator="in" result="mask"></feComposite><feGaussianBlur in="mask" stdDeviation="4" result=""></feGaussianBlur></filter><filter id="FX_IGLW.5#FFFFFFSS" x="-0.5" y="-0.5" width="2" height="2"><feGaussianBlur in="SourceAlpha" stdDeviation="5"></feGaussianBlur><feComposite in2="SourceAlpha" operator="arithmetic" k2="-1" k3="1" result="shadowdiff"></feComposite><feFlood flood-color="#FFFFFF" flood-opacity="1"></feFlood><feComposite in2="shadowdiff" operator="in"></feComposite><feComposite in2="SourceGraphic" operator="over" result="sourceEffect"></feComposite><feMerge><feMergeNode in="sourceEffect"></feMergeNode></feMerge></filter><filter id="sFX_GLW.4#FFD64ASM" x="-0.5" y="-0.25" width="2" height="1.5"><feFlood flood-color="#FFD64A" result="flood"></feFlood><feComposite in="flood" in2="SourceAlpha" operator="in" result="mask"></feComposite><feGaussianBlur in="mask" stdDeviation="4" result=""></feGaussianBlur></filter></defs><g transform="scale(0.96,0.96) translate(0,0)" no-export="1" opacity="0"></g><g transform="scale(0.96,0.96) translate(0,0)" sdjs-background="1"><g transform="scale(1,1) translate(0,0)" stroke-width="0" stroke-dasharray="none" stroke="none" fill="none" no-export="1" width="1000" height="1500"><rect width="1000" height="1500"></rect></g></g><g transform="scale(1,1) translate(0,0)" no-export="1" sdjs-grid="1" style="display: none;"><g transform="scale(1,1) translate(0,0)" fill="#000" stroke="#000" stroke-opacity=".2"><path d="M-1048,-768v2976M-1040,-768v2976M-1032,-768v2976M-1024,-768v2976M-1016,-768v2976M-1008,-768v2976M-1000,-768v2976M-992,-768v2976M-984,-768v2976M-976,-768v2976M-968,-768v2976M-952,-768v2976M-944,-768v2976M-936,-768v2976M-928,-768v2976M-920,-768v2976M-912,-768v2976M-904,-768v2976M-896,-768v2976M-888,-768v2976M-880,-768v2976M-872,-768v2976M-856,-768v2976M-848,-768v2976M-840,-768v2976M-832,-768v2976M-824,-768v2976M-816,-768v2976M-808,-768v2976M-800,-768v2976M-792,-768v2976M-784,-768v2976M-776,-768v2976M-760,-768v2976M-752,-768v2976M-744,-768v2976M-736,-768v2976M-728,-768v2976M-720,-768v2976M-712,-768v2976M-704,-768v2976M-696,-768v2976M-688,-768v2976M-680,-768v2976M-664,-768v2976M-656,-768v2976M-648,-768v2976M-640,-768v2976M-632,-768v2976M-624,-768v2976M-616,-768v2976M-608,-768v2976M-600,-768v2976M-592,-768v2976M-584,-768v2976M-568,-768v2976M-560,-768v2976M-552,-768v2976M-544,-768v2976M-536,-768v2976M-528,-768v2976M-520,-768v2976M-512,-768v2976M-504,-768v2976M-496,-768v2976M-488,-768v2976M-472,-768v2976M-464,-768v2976M-456,-768v2976M-448,-768v2976M-440,-768v2976M-432,-768v2976M-424,-768v2976M-416,-768v2976M-408,-768v2976M-400,-768v2976M-392,-768v2976M-376,-768v2976M-368,-768v2976M-360,-768v2976M-352,-768v2976M-344,-768v2976M-336,-768v2976M-328,-768v2976M-320,-768v2976M-312,-768v2976M-304,-768v2976M-296,-768v2976M-280,-768v2976M-272,-768v2976M-264,-768v2976M-256,-768v2976M-248,-768v2976M-240,-768v2976M-232,-768v2976M-224,-768v2976M-216,-768v2976M-208,-768v2976M-200,-768v2976M-184,-768v2976M-176,-768v2976M-168,-768v2976M-160,-768v2976M-152,-768v2976M-144,-768v2976M-136,-768v2976M-128,-768v2976M-120,-768v2976M-112,-768v2976M-104,-768v2976M-88,-768v2976M-80,-768v2976M-72,-768v2976M-64,-768v2976M-56,-768v2976M-48,-768v2976M-40,-768v2976M-32,-768v2976M-24,-768v2976M-16,-768v2976M-8,-768v2976M8,-768v2976M16,-768v2976M24,-768v2976M32,-768v2976M40,-768v2976M48,-768v2976M56,-768v2976M64,-768v2976M72,-768v2976M80,-768v2976M88,-768v2976M104,-768v2976M112,-768v2976M120,-768v2976M128,-768v2976M136,-768v2976M144,-768v2976M152,-768v2976M160,-768v2976M168,-768v2976M176,-768v2976M184,-768v2976M200,-768v2976M208,-768v2976M216,-768v2976M224,-768v2976M232,-768v2976M240,-768v2976M248,-768v2976M256,-768v2976M264,-768v2976M272,-768v2976M280,-768v2976M296,-768v2976M304,-768v2976M312,-768v2976M320,-768v2976M328,-768v2976M336,-768v2976M344,-768v2976M352,-768v2976M360,-768v2976M368,-768v2976M376,-768v2976M392,-768v2976M400,-768v2976M408,-768v2976M416,-768v2976M424,-768v2976M432,-768v2976M440,-768v2976M448,-768v2976M456,-768v2976M464,-768v2976M472,-768v2976M488,-768v2976M496,-768v2976M504,-768v2976M512,-768v2976M520,-768v2976M528,-768v2976M536,-768v2976M544,-768v2976M552,-768v2976M560,-768v2976M568,-768v2976M584,-768v2976M592,-768v2976M600,-768v2976M608,-768v2976M616,-768v2976M624,-768v2976M632,-768v2976M640,-768v2976M648,-768v2976M656,-768v2976M664,-768v2976M680,-768v2976M688,-768v2976M696,-768v2976M704,-768v2976M712,-768v2976M720,-768v2976M728,-768v2976M736,-768v2976M744,-768v2976M752,-768v2976M760,-768v2976M776,-768v2976M784,-768v2976M792,-768v2976M800,-768v2976M808,-768v2976M816,-768v2976M824,-768v2976M832,-768v2976M840,-768v2976M848,-768v2976M856,-768v2976M872,-768v2976M880,-768v2976M888,-768v2976M896,-768v2976M904,-768v2976M912,-768v2976M920,-768v2976M928,-768v2976M936,-768v2976M944,-768v2976M952,-768v2976M968,-768v2976M976,-768v2976M984,-768v2976M992,-768v2976M1000,-768v2976M1008,-768v2976M1016,-768v2976M1024,-768v2976M1032,-768v2976M1040,-768v2976M1048,-768v2976M1064,-768v2976M1072,-768v2976M1080,-768v2976M1088,-768v2976M1096,-768v2976M1104,-768v2976M1112,-768v2976M1120,-768v2976M1128,-768v2976M1136,-768v2976M1144,-768v2976M1160,-768v2976M1168,-768v2976M1176,-768v2976M1184,-768v2976M1192,-768v2976M1200,-768v2976M1208,-768v2976M1216,-768v2976M1224,-768v2976M1232,-768v2976M1240,-768v2976M1256,-768v2976M1264,-768v2976M1272,-768v2976M1280,-768v2976M1288,-768v2976M1296,-768v2976M1304,-768v2976M1312,-768v2976M1320,-768v2976M1328,-768v2976M1336,-768v2976M1352,-768v2976M1360,-768v2976M1368,-768v2976M1376,-768v2976M1384,-768v2976M1392,-768v2976M1400,-768v2976M1408,-768v2976M1416,-768v2976M1424,-768v2976M1432,-768v2976M1448,-768v2976M1456,-768v2976M1464,-768v2976M1472,-768v2976M1480,-768v2976M1488,-768v2976M1496,-768v2976M1504,-768v2976M1512,-768v2976M1520,-768v2976M1528,-768v2976M1544,-768v2976M1552,-768v2976M1560,-768v2976M1568,-768v2976M1576,-768v2976M1584,-768v2976M1592,-768v2976M1600,-768v2976M1608,-768v2976M1616,-768v2976M1624,-768v2976M1640,-768v2976M1648,-768v2976M1656,-768v2976M1664,-768v2976M1672,-768v2976M1680,-768v2976M1688,-768v2976M1696,-768v2976M1704,-768v2976M1712,-768v2976M1720,-768v2976M1736,-768v2976M1744,-768v2976M1752,-768v2976M1760,-768v2976M1768,-768v2976M1776,-768v2976M1784,-768v2976M1792,-768v2976M1800,-768v2976M1808,-768v2976M1816,-768v2976M1832,-768v2976M1840,-768v2976M1848,-768v2976M1856,-768v2976M1864,-768v2976M1872,-768v2976M1880,-768v2976M1888,-768v2976M1896,-768v2976M1904,-768v2976M1912,-768v2976M1928,-768v2976M1936,-768v2976M1944,-768v2976M1952,-768v2976M1960,-768v2976M1968,-768v2976M-1008,-760h2976M-1008,-752h2976M-1008,-744h2976M-1008,-736h2976M-1008,-728h2976M-1008,-720h2976M-1008,-712h2976M-1008,-704h2976M-1008,-696h2976M-1008,-688h2976M-1008,-680h2976M-1008,-664h2976M-1008,-656h2976M-1008,-648h2976M-1008,-640h2976M-1008,-632h2976M-1008,-624h2976M-1008,-616h2976M-1008,-608h2976M-1008,-600h2976M-1008,-592h2976M-1008,-584h2976M-1008,-568h2976M-1008,-560h2976M-1008,-552h2976M-1008,-544h2976M-1008,-536h2976M-1008,-528h2976M-1008,-520h2976M-1008,-512h2976M-1008,-504h2976M-1008,-496h2976M-1008,-488h2976M-1008,-472h2976M-1008,-464h2976M-1008,-456h2976M-1008,-448h2976M-1008,-440h2976M-1008,-432h2976M-1008,-424h2976M-1008,-416h2976M-1008,-408h2976M-1008,-400h2976M-1008,-392h2976M-1008,-376h2976M-1008,-368h2976M-1008,-360h2976M-1008,-352h2976M-1008,-344h2976M-1008,-336h2976M-1008,-328h2976M-1008,-320h2976M-1008,-312h2976M-1008,-304h2976M-1008,-296h2976M-1008,-280h2976M-1008,-272h2976M-1008,-264h2976M-1008,-256h2976M-1008,-248h2976M-1008,-240h2976M-1008,-232h2976M-1008,-224h2976M-1008,-216h2976M-1008,-208h2976M-1008,-200h2976M-1008,-184h2976M-1008,-176h2976M-1008,-168h2976M-1008,-160h2976M-1008,-152h2976M-1008,-144h2976M-1008,-136h2976M-1008,-128h2976M-1008,-120h2976M-1008,-112h2976M-1008,-104h2976M-1008,-88h2976M-1008,-80h2976M-1008,-72h2976M-1008,-64h2976M-1008,-56h2976M-1008,-48h2976M-1008,-40h2976M-1008,-32h2976M-1008,-24h2976M-1008,-16h2976M-1008,-8h2976M-1008,8h2976M-1008,16h2976M-1008,24h2976M-1008,32h2976M-1008,40h2976M-1008,48h2976M-1008,56h2976M-1008,64h2976M-1008,72h2976M-1008,80h2976M-1008,88h2976M-1008,104h2976M-1008,112h2976M-1008,120h2976M-1008,128h2976M-1008,136h2976M-1008,144h2976M-1008,152h2976M-1008,160h2976M-1008,168h2976M-1008,176h2976M-1008,184h2976M-1008,200h2976M-1008,208h2976M-1008,216h2976M-1008,224h2976M-1008,232h2976M-1008,240h2976M-1008,248h2976M-1008,256h2976M-1008,264h2976M-1008,272h2976M-1008,280h2976M-1008,296h2976M-1008,304h2976M-1008,312h2976M-1008,320h2976M-1008,328h2976M-1008,336h2976M-1008,344h2976M-1008,352h2976M-1008,360h2976M-1008,368h2976M-1008,376h2976M-1008,392h2976M-1008,400h2976M-1008,408h2976M-1008,416h2976M-1008,424h2976M-1008,432h2976M-1008,440h2976M-1008,448h2976M-1008,456h2976M-1008,464h2976M-1008,472h2976M-1008,488h2976M-1008,496h2976M-1008,504h2976M-1008,512h2976M-1008,520h2976M-1008,528h2976M-1008,536h2976M-1008,544h2976M-1008,552h2976M-1008,560h2976M-1008,568h2976M-1008,584h2976M-1008,592h2976M-1008,600h2976M-1008,608h2976M-1008,616h2976M-1008,624h2976M-1008,632h2976M-1008,640h2976M-1008,648h2976M-1008,656h2976M-1008,664h2976M-1008,680h2976M-1008,688h2976M-1008,696h2976M-1008,704h2976M-1008,712h2976M-1008,720h2976M-1008,728h2976M-1008,736h2976M-1008,744h2976M-1008,752h2976M-1008,760h2976M-1008,776h2976M-1008,784h2976M-1008,792h2976M-1008,800h2976M-1008,808h2976M-1008,816h2976M-1008,824h2976M-1008,832h2976M-1008,840h2976M-1008,848h2976M-1008,856h2976M-1008,872h2976M-1008,880h2976M-1008,888h2976M-1008,896h2976M-1008,904h2976M-1008,912h2976M-1008,920h2976M-1008,928h2976M-1008,936h2976M-1008,944h2976M-1008,952h2976M-1008,968h2976M-1008,976h2976M-1008,984h2976M-1008,992h2976M-1008,1000h2976M-1008,1008h2976M-1008,1016h2976M-1008,1024h2976M-1008,1032h2976M-1008,1040h2976M-1008,1048h2976M-1008,1064h2976M-1008,1072h2976M-1008,1080h2976M-1008,1088h2976M-1008,1096h2976M-1008,1104h2976M-1008,1112h2976M-1008,1120h2976M-1008,1128h2976M-1008,1136h2976M-1008,1144h2976M-1008,1160h2976M-1008,1168h2976M-1008,1176h2976M-1008,1184h2976M-1008,1192h2976M-1008,1200h2976M-1008,1208h2976M-1008,1216h2976M-1008,1224h2976M-1008,1232h2976M-1008,1240h2976M-1008,1256h2976M-1008,1264h2976M-1008,1272h2976M-1008,1280h2976M-1008,1288h2976M-1008,1296h2976M-1008,1304h2976M-1008,1312h2976M-1008,1320h2976M-1008,1328h2976M-1008,1336h2976M-1008,1352h2976M-1008,1360h2976M-1008,1368h2976M-1008,1376h2976M-1008,1384h2976M-1008,1392h2976M-1008,1400h2976M-1008,1408h2976M-1008,1416h2976M-1008,1424h2976M-1008,1432h2976M-1008,1448h2976M-1008,1456h2976M-1008,1464h2976M-1008,1472h2976M-1008,1480h2976M-1008,1488h2976M-1008,1496h2976M-1008,1504h2976M-1008,1512h2976M-1008,1520h2976M-1008,1528h2976M-1008,1544h2976M-1008,1552h2976M-1008,1560h2976M-1008,1568h2976M-1008,1576h2976M-1008,1584h2976M-1008,1592h2976M-1008,1600h2976M-1008,1608h2976M-1008,1616h2976M-1008,1624h2976M-1008,1640h2976M-1008,1648h2976M-1008,1656h2976M-1008,1664h2976M-1008,1672h2976M-1008,1680h2976M-1008,1688h2976M-1008,1696h2976M-1008,1704h2976M-1008,1712h2976M-1008,1720h2976M-1008,1736h2976M-1008,1744h2976M-1008,1752h2976M-1008,1760h2976M-1008,1768h2976M-1008,1776h2976M-1008,1784h2976M-1008,1792h2976M-1008,1800h2976M-1008,1808h2976M-1008,1816h2976M-1008,1832h2976M-1008,1840h2976M-1008,1848h2976M-1008,1856h2976M-1008,1864h2976M-1008,1872h2976M-1008,1880h2976M-1008,1888h2976M-1008,1896h2976M-1008,1904h2976M-1008,1912h2976M-1008,1928h2976M-1008,1936h2976M-1008,1944h2976M-1008,1952h2976M-1008,1960h2976M-1008,1968h2976M-1008,1976h2976M-1008,1984h2976M-1008,1992h2976M-1008,2000h2976M-1008,2008h2976M-1008,2024h2976M-1008,2032h2976M-1008,2040h2976M-1008,2048h2976M-1008,2056h2976M-1008,2064h2976M-1008,2072h2976M-1008,2080h2976M-1008,2088h2976M-1008,2096h2976M-1008,2104h2976M-1008,2120h2976M-1008,2128h2976M-1008,2136h2976M-1008,2144h2976M-1008,2152h2976M-1008,2160h2976M-1008,2168h2976M-1008,2176h2976M-1008,2184h2976M-1008,2192h2976M-1008,2200h2976" fill="none" stroke-width="0.5" stroke-dasharray="none"></path><g><g stroke-dasharray="none"><path d="M-1048.5,-768.5L-1047.5,-768.5L-1047.5,-767.5L-1048.5,-767.5z" stroke-width="0" fill="none"></path></g></g></g><g transform="scale(1,1) translate(0,0)" fill="#000" stroke="#000" stroke-opacity=".4"><path d="M-1056,-768v2976M-960,-768v2976M-864,-768v2976M-768,-768v2976M-672,-768v2976M-576,-768v2976M-480,-768v2976M-384,-768v2976M-288,-768v2976M-192,-768v2976M-96,-768v2976M0,-768v2976M96,-768v2976M192,-768v2976M288,-768v2976M384,-768v2976M480,-768v2976M576,-768v2976M672,-768v2976M768,-768v2976M864,-768v2976M960,-768v2976M1056,-768v2976M1152,-768v2976M1248,-768v2976M1344,-768v2976M1440,-768v2976M1536,-768v2976M1632,-768v2976M1728,-768v2976M1824,-768v2976M1920,-768v2976M-1008,-768h2976M-1008,-672h2976M-1008,-576h2976M-1008,-480h2976M-1008,-384h2976M-1008,-288h2976M-1008,-192h2976M-1008,-96h2976M-1008,0h2976M-1008,96h2976M-1008,192h2976M-1008,288h2976M-1008,384h2976M-1008,480h2976M-1008,576h2976M-1008,672h2976M-1008,768h2976M-1008,864h2976M-1008,960h2976M-1008,1056h2976M-1008,1152h2976M-1008,1248h2976M-1008,1344h2976M-1008,1440h2976M-1008,1536h2976M-1008,1632h2976M-1008,1728h2976M-1008,1824h2976M-1008,1920h2976M-1008,2016h2976M-1008,2112h2976M-1008,2208h2976" fill="none" stroke-width="0.5" stroke-dasharray="none"></path><g><g stroke-dasharray="none"><path d="M-1056.5,-768.5L-1055.5,-768.5L-1055.5,-767.5L-1056.5,-767.5z" stroke-width="0" fill="none"></path></g></g></g></g><g transform="scale(1,1) translate(0,0)" no-export="1" style="display: none;"><g transform="scale(1,1) translate(0,0)" fill="#000088" stroke="#000088" stroke-opacity=".6"><path d="M0,720h960" fill="none" stroke-dasharray="5,2" stroke-width="0.5"></path><g><g stroke-dasharray="none"><path d="M-0.5,719.5L0.5,719.5L0.5,720.5L-0.5,720.5z" stroke-width="0" fill="none"></path></g></g></g></g><g transform="scale(0.96,0.96) translate(0,0)"><g width="150" height="75" transform="scale(1,1) translate(108.333,120.833)" style="user-select: none;"><g id="1025a5eb-042f-4dca-822d-bce103b05202"><g transform="scale(1,1) translate(0,0)" stroke="#1C8BE6" fill="#cfe682" fill-opacity="1" stroke-opacity="1"><path d="M37,0 L28.675,0.949 L25.303,1.897 L22.769,2.846 L20.678,3.795 L18.875,4.744 L17.281,5.692 L15.85,6.641 L14.549,7.59 L13.358,8.538 L12.26,9.487 L11.244,10.436 L10.301,11.385 L9.422,12.333 L8.602,13.282 L7.836,14.231 L7.119,15.179 L6.449,16.128 L5.822,17.077 L5.236,18.026 L4.688,18.974 L4.177,19.923 L3.7,20.872 L3.257,21.821 L2.846,22.769 L2.466,23.718 L2.116,24.667 L1.795,25.615 L1.502,26.564 L1.237,27.513 L0.999,28.462 L0.787,29.41 L0.601,30.359 L0.44,31.308 L0.305,32.256 L0.195,33.205 L0.11,34.154 L0.049,35.103 L0.012,36.051 L0,37 L0,38 L0.012,38.949 L0.049,39.897 L0.11,40.846 L0.195,41.795 L0.305,42.744 L0.44,43.692 L0.601,44.641 L0.787,45.59 L0.999,46.538 L1.237,47.487 L1.502,48.436 L1.795,49.385 L2.116,50.333 L2.466,51.282 L2.846,52.231 L3.257,53.179 L3.7,54.128 L4.177,55.077 L4.688,56.026 L5.236,56.974 L5.822,57.923 L6.449,58.872 L7.119,59.821 L7.836,60.769 L8.602,61.718 L9.422,62.667 L10.301,63.615 L11.244,64.564 L12.26,65.513 L13.358,66.462 L14.549,67.41 L15.85,68.359 L17.281,69.308 L18.875,70.256 L20.678,71.205 L22.769,72.154 L25.303,73.103 L28.675,74.051 L37,75 L113,75 L121.325,74.051 L124.697,73.103 L127.231,72.154 L129.322,71.205 L131.125,70.256 L132.719,69.308 L134.15,68.359 L135.451,67.41 L136.642,66.462 L137.74,65.513 L138.756,64.564 L139.699,63.615 L140.578,62.667 L141.398,61.718 L142.164,60.769 L142.881,59.821 L143.551,58.872 L144.178,57.923 L144.764,56.974 L145.312,56.026 L145.823,55.077 L146.3,54.128 L146.743,53.179 L147.154,52.231 L147.534,51.282 L147.884,50.333 L148.205,49.385 L148.498,48.436 L148.763,47.487 L149.001,46.538 L149.213,45.59 L149.399,44.641 L149.56,43.692 L149.695,42.744 L149.805,41.795 L149.89,40.846 L149.951,39.897 L149.988,38.949 L150,38 L150,37 L149.988,36.051 L149.951,35.103 L149.89,34.154 L149.805,33.205 L149.695,32.256 L149.56,31.308 L149.399,30.359 L149.213,29.41 L149.001,28.462 L148.763,27.513 L148.498,26.564 L148.205,25.615 L147.884,24.667 L147.534,23.718 L147.154,22.769 L146.743,21.821 L146.3,20.872 L145.823,19.923 L145.312,18.974 L144.764,18.026 L144.178,17.077 L143.551,16.128 L142.881,15.179 L142.164,14.231 L141.398,13.282 L140.578,12.333 L139.699,11.385 L138.756,10.436 L137.74,9.487 L136.642,8.538 L135.451,7.59 L134.15,6.641 L132.719,5.692 L131.125,4.744 L129.322,3.795 L127.231,2.846 L124.697,1.897 L121.325,0.949 L113,0 L37,0 z" stroke-width="1" stroke-dasharray="none"></path><g></g></g><g transform="scale(1,1) translate(0,0)" stroke="white" fill="none" opacity="0" pointer-events="stroke" no-export="1"><path d="M37,0 L28.675,0.949 L25.303,1.897 L22.769,2.846 L20.678,3.795 L18.875,4.744 L17.281,5.692 L15.85,6.641 L14.549,7.59 L13.358,8.538 L12.26,9.487 L11.244,10.436 L10.301,11.385 L9.422,12.333 L8.602,13.282 L7.836,14.231 L7.119,15.179 L6.449,16.128 L5.822,17.077 L5.236,18.026 L4.688,18.974 L4.177,19.923 L3.7,20.872 L3.257,21.821 L2.846,22.769 L2.466,23.718 L2.116,24.667 L1.795,25.615 L1.502,26.564 L1.237,27.513 L0.999,28.462 L0.787,29.41 L0.601,30.359 L0.44,31.308 L0.305,32.256 L0.195,33.205 L0.11,34.154 L0.049,35.103 L0.012,36.051 L0,37 L0,38 L0.012,38.949 L0.049,39.897 L0.11,40.846 L0.195,41.795 L0.305,42.744 L0.44,43.692 L0.601,44.641 L0.787,45.59 L0.999,46.538 L1.237,47.487 L1.502,48.436 L1.795,49.385 L2.116,50.333 L2.466,51.282 L2.846,52.231 L3.257,53.179 L3.7,54.128 L4.177,55.077 L4.688,56.026 L5.236,56.974 L5.822,57.923 L6.449,58.872 L7.119,59.821 L7.836,60.769 L8.602,61.718 L9.422,62.667 L10.301,63.615 L11.244,64.564 L12.26,65.513 L13.358,66.462 L14.549,67.41 L15.85,68.359 L17.281,69.308 L18.875,70.256 L20.678,71.205 L22.769,72.154 L25.303,73.103 L28.675,74.051 L37,75 L113,75 L121.325,74.051 L124.697,73.103 L127.231,72.154 L129.322,71.205 L131.125,70.256 L132.719,69.308 L134.15,68.359 L135.451,67.41 L136.642,66.462 L137.74,65.513 L138.756,64.564 L139.699,63.615 L140.578,62.667 L141.398,61.718 L142.164,60.769 L142.881,59.821 L143.551,58.872 L144.178,57.923 L144.764,56.974 L145.312,56.026 L145.823,55.077 L146.3,54.128 L146.743,53.179 L147.154,52.231 L147.534,51.282 L147.884,50.333 L148.205,49.385 L148.498,48.436 L148.763,47.487 L149.001,46.538 L149.213,45.59 L149.399,44.641 L149.56,43.692 L149.695,42.744 L149.805,41.795 L149.89,40.846 L149.951,39.897 L149.988,38.949 L150,38 L150,37 L149.988,36.051 L149.951,35.103 L149.89,34.154 L149.805,33.205 L149.695,32.256 L149.56,31.308 L149.399,30.359 L149.213,29.41 L149.001,28.462 L148.763,27.513 L148.498,26.564 L148.205,25.615 L147.884,24.667 L147.534,23.718 L147.154,22.769 L146.743,21.821 L146.3,20.872 L145.823,19.923 L145.312,18.974 L144.764,18.026 L144.178,17.077 L143.551,16.128 L142.881,15.179 L142.164,14.231 L141.398,13.282 L140.578,12.333 L139.699,11.385 L138.756,10.436 L137.74,9.487 L136.642,8.538 L135.451,7.59 L134.15,6.641 L132.719,5.692 L131.125,4.744 L129.322,3.795 L127.231,2.846 L124.697,1.897 L121.325,0.949 L113,0 L37,0 z" stroke-width="8" stroke-dasharray="none"></path><g></g></g><g width="101.358910518" height="48.325901868" transform="scale(1,1) translate(24.321,13.337)"><rect stroke-width="0" fill="none" visibility="hidden" no-export="1" transform="scale(1,1) translate(0,0)" width="101.358910518" height="48.325901868"></rect><text width="101.358910518" height="43.750003814697266" transform="scale(1,1) translate(0,2.2879490266513685)" xml:space="preserve"><tspan xml:space="preserve" text-rendering="optimizeSpeed" style="font-family: &quot;Arial&quot;, &quot;Helvetica Neue&quot;, Helvetica, sans-serif;" font-size="19.444444444444443" font-weight="normal" font-style="normal" text-decoration="none" fill="#FFFFFF" opacity="1" x="16.634" text-anchor="start" y="17.708" textLength="62.690975189208984">recieve</tspan><tspan xml:space="preserve" text-rendering="optimizeSpeed" style="font-family: &quot;Arial&quot;, &quot;Helvetica Neue&quot;, Helvetica, sans-serif;" font-size="19.444444444444443" font-weight="normal" font-style="normal" text-decoration="none" fill="#FFFFFF" opacity="1" x="20.94" text-anchor="start" y="39.583" textLength="59.479164123535156">update</tspan></text><g width="101.358910518" height="43.750003814697266" transform="scale(1,1) translate(0,2.2879490266513685)"></g></g></g></g><g width="200" height="100" transform="scale(1,1) translate(291.667,242.208)" style="user-select: none;"><g id="bd4f23f0-ac44-458b-8ea5-4267ccc3f77c"><g transform="scale(1,1) translate(0,0)" stroke="#1C8BE6" fill="#1C8BE6" fill-opacity="1" stroke-opacity="1"><path d="M100,0 L200,50 L100,100 L0,50 L100,0 z" stroke-width="1" stroke-dasharray="none"></path><g></g></g><g transform="scale(1,1) translate(0,0)" stroke="white" fill="none" opacity="0" pointer-events="stroke" no-export="1"><path d="M100,0 L200,50 L100,100 L0,50 L100,0 z" stroke-width="8" stroke-dasharray="none"></path><g></g></g><g width="99.5" height="49.5" transform="scale(1,1) translate(50.25,25.25)"><rect stroke-width="0" fill="none" visibility="hidden" no-export="1" transform="scale(1,1) translate(0,0)" width="99.5" height="49.5"></rect><text width="99.5" height="21.875001907348633" transform="scale(1,1) translate(0,13.812499046325684)" xml:space="preserve"><tspan xml:space="preserve" text-rendering="optimizeSpeed" style="font-family: &quot;Arial&quot;, &quot;Helvetica Neue&quot;, Helvetica, sans-serif;" font-size="19.444444444444443" font-weight="normal" font-style="normal" text-decoration="none" fill="#FFFFFF" opacity="1" x="17.866" text-anchor="start" y="17.708" textLength="63.767364501953125">empty?</tspan></text><g width="99.5" height="21.875001907348633" transform="scale(1,1) translate(0,13.812499046325684)"></g></g></g></g><g width="150" height="75" transform="scale(1,1) translate(316.667,389.583)" style="user-select: none;"><g id="6ae923b5-28e1-4803-8642-dfec17a1bc2f"><g transform="scale(1,1) translate(0,0)" stroke="#1C8BE6" stroke-opacity="1" fill="#f4e273" fill-opacity="1"><path d="M0,5 a5,5 0 0,1 5,-5 l140,0 a5,5 0 0,1 5,5 l0,65 a5,5 0 0,1 -5,5 l-140,0 a5,5 0 0,1 -5,-5 z" stroke-width="1" stroke-dasharray="none"></path><g></g></g><g transform="scale(1,1) translate(0,0)" stroke="white" fill="none" opacity="0" pointer-events="stroke" no-export="1"><path d="M0,5 a5,5 0 0,1 5,-5 l140,0 a5,5 0 0,1 5,5 l0,65 a5,5 0 0,1 -5,5 l-140,0 a5,5 0 0,1 -5,-5 z" stroke-width="8" stroke-dasharray="none"></path><g></g></g><g width="142.07106782" height="67.07106782" transform="scale(1,1) translate(3.964,3.964)"><rect stroke-width="0" fill="none" visibility="hidden" no-export="1" transform="scale(1,1) translate(0,0)" width="142.07106782" height="67.07106782"></rect><text width="142.07106782" height="43.750003814697266" transform="scale(1,1) translate(0,11.660532002651365)" xml:space="preserve"><tspan xml:space="preserve" text-rendering="optimizeSpeed" style="font-family: &quot;Arial&quot;, &quot;Helvetica Neue&quot;, Helvetica, sans-serif;" font-size="19.444444444444443" font-weight="normal" font-style="normal" text-decoration="none" fill="#FFFFFF" opacity="1" x="22.954" text-anchor="start" y="17.708" textLength="90.7638931274414">fix&nbsp;missing</tspan><tspan xml:space="preserve" text-rendering="optimizeSpeed" style="font-family: &quot;Arial&quot;, &quot;Helvetica Neue&quot;, Helvetica, sans-serif;" font-size="19.444444444444443" font-weight="normal" font-style="normal" text-decoration="none" fill="#FFFFFF" opacity="1" x="45.089" text-anchor="start" y="39.583" textLength="51.892372131347656">inputs</tspan></text><g width="142.07106782" height="43.750003814697266" transform="scale(1,1) translate(0,11.660532002651365)"></g></g></g></g><g width="1" height="47.375" transform="scale(1,1) translate(391.667,342.208)" style="user-select: none;"><g><g transform="scale(1,1) translate(0,0)" fill="#BFBFBF" stroke="#BFBFBF" stroke-opacity="1"><path d="M 0 0 L 0 37.375" fill="none" stroke-width="1" stroke-dasharray="none"></path><g><g stroke-dasharray="none"><path d="M5,37.375L0,47.375L-5,37.375z" stroke="none" fill-opacity="1"></path></g></g></g><g no-export="1" transform="scale(1,1) translate(0,0)" stroke="white" fill="none" opacity="0" pointer-events="stroke"><path d="M 0 0 L 0 23.375" fill="none" stroke-width="8" stroke-dasharray="none"></path><g><g stroke-dasharray="none"><path d="M12,23.375L0,47.375L-12,23.375z" stroke="none" fill-opacity="1"></path></g></g></g><g stroke-width="0" stroke-dasharray="none" fill="#FFFFFF" opacity="1" width="31.34" height="18.667" transform="scale(1,1) translate(-15.67,14.354)"><rect width="31.34" height="18.667"></rect></g><g width="29.340280532836914" height="47.37499999999994" transform="scale(1,1) translate(-14.67,15.354)"><rect stroke-width="0" fill="none" visibility="hidden" no-export="1" transform="scale(1,1) translate(0,0)" width="29.340280532836914" height="47.37499999999994"></rect><text width="29.340280532836914" height="16.666667938232422" transform="scale(1,1) translate(0,0)" xml:space="preserve"><tspan xml:space="preserve" text-rendering="optimizeSpeed" style="font-family: &quot;Arial&quot;, &quot;Helvetica Neue&quot;, Helvetica, sans-serif;" font-size="13.88888888888889" font-weight="normal" font-style="normal" text-decoration="none" fill="#333333" opacity="1" x="0" text-anchor="start" y="13.542" textLength="29.340280532836914">false</tspan></text><g width="29.340280532836914" height="16.666667938232422" transform="scale(1,1) translate(0,0)"></g></g></g></g><g width="150" height="75" transform="scale(1,1) translate(316.667,779.708)" style="user-select: none;"><g><g transform="scale(1,1) translate(0,0)" stroke="#1C8BE6" fill="#e68282" fill-opacity="1" stroke-opacity="1"><path d="M37,0 L28.675,0.949 L25.303,1.897 L22.769,2.846 L20.678,3.795 L18.875,4.744 L17.281,5.692 L15.85,6.641 L14.549,7.59 L13.358,8.538 L12.26,9.487 L11.244,10.436 L10.301,11.385 L9.422,12.333 L8.602,13.282 L7.836,14.231 L7.119,15.179 L6.449,16.128 L5.822,17.077 L5.236,18.026 L4.688,18.974 L4.177,19.923 L3.7,20.872 L3.257,21.821 L2.846,22.769 L2.466,23.718 L2.116,24.667 L1.795,25.615 L1.502,26.564 L1.237,27.513 L0.999,28.462 L0.787,29.41 L0.601,30.359 L0.44,31.308 L0.305,32.256 L0.195,33.205 L0.11,34.154 L0.049,35.103 L0.012,36.051 L0,37 L0,38 L0.012,38.949 L0.049,39.897 L0.11,40.846 L0.195,41.795 L0.305,42.744 L0.44,43.692 L0.601,44.641 L0.787,45.59 L0.999,46.538 L1.237,47.487 L1.502,48.436 L1.795,49.385 L2.116,50.333 L2.466,51.282 L2.846,52.231 L3.257,53.179 L3.7,54.128 L4.177,55.077 L4.688,56.026 L5.236,56.974 L5.822,57.923 L6.449,58.872 L7.119,59.821 L7.836,60.769 L8.602,61.718 L9.422,62.667 L10.301,63.615 L11.244,64.564 L12.26,65.513 L13.358,66.462 L14.549,67.41 L15.85,68.359 L17.281,69.308 L18.875,70.256 L20.678,71.205 L22.769,72.154 L25.303,73.103 L28.675,74.051 L37,75 L113,75 L121.325,74.051 L124.697,73.103 L127.231,72.154 L129.322,71.205 L131.125,70.256 L132.719,69.308 L134.15,68.359 L135.451,67.41 L136.642,66.462 L137.74,65.513 L138.756,64.564 L139.699,63.615 L140.578,62.667 L141.398,61.718 L142.164,60.769 L142.881,59.821 L143.551,58.872 L144.178,57.923 L144.764,56.974 L145.312,56.026 L145.823,55.077 L146.3,54.128 L146.743,53.179 L147.154,52.231 L147.534,51.282 L147.884,50.333 L148.205,49.385 L148.498,48.436 L148.763,47.487 L149.001,46.538 L149.213,45.59 L149.399,44.641 L149.56,43.692 L149.695,42.744 L149.805,41.795 L149.89,40.846 L149.951,39.897 L149.988,38.949 L150,38 L150,37 L149.988,36.051 L149.951,35.103 L149.89,34.154 L149.805,33.205 L149.695,32.256 L149.56,31.308 L149.399,30.359 L149.213,29.41 L149.001,28.462 L148.763,27.513 L148.498,26.564 L148.205,25.615 L147.884,24.667 L147.534,23.718 L147.154,22.769 L146.743,21.821 L146.3,20.872 L145.823,19.923 L145.312,18.974 L144.764,18.026 L144.178,17.077 L143.551,16.128 L142.881,15.179 L142.164,14.231 L141.398,13.282 L140.578,12.333 L139.699,11.385 L138.756,10.436 L137.74,9.487 L136.642,8.538 L135.451,7.59 L134.15,6.641 L132.719,5.692 L131.125,4.744 L129.322,3.795 L127.231,2.846 L124.697,1.897 L121.325,0.949 L113,0 L37,0 z" stroke-width="1" stroke-dasharray="none"></path><g></g></g><g transform="scale(1,1) translate(0,0)" stroke="white" fill="none" opacity="0" pointer-events="stroke" no-export="1"><path d="M37,0 L28.675,0.949 L25.303,1.897 L22.769,2.846 L20.678,3.795 L18.875,4.744 L17.281,5.692 L15.85,6.641 L14.549,7.59 L13.358,8.538 L12.26,9.487 L11.244,10.436 L10.301,11.385 L9.422,12.333 L8.602,13.282 L7.836,14.231 L7.119,15.179 L6.449,16.128 L5.822,17.077 L5.236,18.026 L4.688,18.974 L4.177,19.923 L3.7,20.872 L3.257,21.821 L2.846,22.769 L2.466,23.718 L2.116,24.667 L1.795,25.615 L1.502,26.564 L1.237,27.513 L0.999,28.462 L0.787,29.41 L0.601,30.359 L0.44,31.308 L0.305,32.256 L0.195,33.205 L0.11,34.154 L0.049,35.103 L0.012,36.051 L0,37 L0,38 L0.012,38.949 L0.049,39.897 L0.11,40.846 L0.195,41.795 L0.305,42.744 L0.44,43.692 L0.601,44.641 L0.787,45.59 L0.999,46.538 L1.237,47.487 L1.502,48.436 L1.795,49.385 L2.116,50.333 L2.466,51.282 L2.846,52.231 L3.257,53.179 L3.7,54.128 L4.177,55.077 L4.688,56.026 L5.236,56.974 L5.822,57.923 L6.449,58.872 L7.119,59.821 L7.836,60.769 L8.602,61.718 L9.422,62.667 L10.301,63.615 L11.244,64.564 L12.26,65.513 L13.358,66.462 L14.549,67.41 L15.85,68.359 L17.281,69.308 L18.875,70.256 L20.678,71.205 L22.769,72.154 L25.303,73.103 L28.675,74.051 L37,75 L113,75 L121.325,74.051 L124.697,73.103 L127.231,72.154 L129.322,71.205 L131.125,70.256 L132.719,69.308 L134.15,68.359 L135.451,67.41 L136.642,66.462 L137.74,65.513 L138.756,64.564 L139.699,63.615 L140.578,62.667 L141.398,61.718 L142.164,60.769 L142.881,59.821 L143.551,58.872 L144.178,57.923 L144.764,56.974 L145.312,56.026 L145.823,55.077 L146.3,54.128 L146.743,53.179 L147.154,52.231 L147.534,51.282 L147.884,50.333 L148.205,49.385 L148.498,48.436 L148.763,47.487 L149.001,46.538 L149.213,45.59 L149.399,44.641 L149.56,43.692 L149.695,42.744 L149.805,41.795 L149.89,40.846 L149.951,39.897 L149.988,38.949 L150,38 L150,37 L149.988,36.051 L149.951,35.103 L149.89,34.154 L149.805,33.205 L149.695,32.256 L149.56,31.308 L149.399,30.359 L149.213,29.41 L149.001,28.462 L148.763,27.513 L148.498,26.564 L148.205,25.615 L147.884,24.667 L147.534,23.718 L147.154,22.769 L146.743,21.821 L146.3,20.872 L145.823,19.923 L145.312,18.974 L144.764,18.026 L144.178,17.077 L143.551,16.128 L142.881,15.179 L142.164,14.231 L141.398,13.282 L140.578,12.333 L139.699,11.385 L138.756,10.436 L137.74,9.487 L136.642,8.538 L135.451,7.59 L134.15,6.641 L132.719,5.692 L131.125,4.744 L129.322,3.795 L127.231,2.846 L124.697,1.897 L121.325,0.949 L113,0 L37,0 z" stroke-width="8" stroke-dasharray="none"></path><g></g></g><g width="101.358910518" height="48.325901868" transform="scale(1,1) translate(24.321,13.337)"><rect stroke-width="0" fill="none" visibility="hidden" no-export="1" transform="scale(1,1) translate(0,0)" width="101.358910518" height="48.325901868"></rect><text width="101.358910518" height="21.875001907348633" transform="scale(1,1) translate(0,13.225449980325685)" xml:space="preserve"><tspan xml:space="preserve" text-rendering="optimizeSpeed" style="font-family: &quot;Arial&quot;, &quot;Helvetica Neue&quot;, Helvetica, sans-serif;" font-size="19.444444444444443" font-weight="normal" font-style="normal" text-decoration="none" fill="#FFFFFF" opacity="1" x="34.455" text-anchor="start" y="17.708" textLength="32.44791793823242">end</tspan></text><g width="101.358910518" height="21.875001907348633" transform="scale(1,1) translate(0,13.225449980325685)"></g></g></g></g><g width="150" height="75" transform="scale(1,1) translate(316.667,120.833)" style="user-select: none;"><g id="2b9ae3e1-3dd4-4196-8eca-af7f2ae02627"><g transform="scale(1,1) translate(0,0)" stroke="#1C8BE6" stroke-opacity="1" fill="#f4e273" fill-opacity="1"><path d="M0,5 a5,5 0 0,1 5,-5 l140,0 a5,5 0 0,1 5,5 l0,65 a5,5 0 0,1 -5,5 l-140,0 a5,5 0 0,1 -5,-5 z" stroke-width="1" stroke-dasharray="none"></path><g></g></g><g transform="scale(1,1) translate(0,0)" stroke="white" fill="none" opacity="0" pointer-events="stroke" no-export="1"><path d="M0,5 a5,5 0 0,1 5,-5 l140,0 a5,5 0 0,1 5,5 l0,65 a5,5 0 0,1 -5,5 l-140,0 a5,5 0 0,1 -5,-5 z" stroke-width="8" stroke-dasharray="none"></path><g></g></g><g width="142.07106782" height="67.07106782" transform="scale(1,1) translate(3.964,3.964)"><rect stroke-width="0" fill="none" visibility="hidden" no-export="1" transform="scale(1,1) translate(0,0)" width="142.07106782" height="67.07106782"></rect><text width="142.07106782" height="21.875001907348633" transform="scale(1,1) translate(0,22.59803295632568)" xml:space="preserve"><tspan xml:space="preserve" text-rendering="optimizeSpeed" style="font-family: &quot;Arial&quot;, &quot;Helvetica Neue&quot;, Helvetica, sans-serif;" font-size="19.444444444444443" font-weight="normal" font-style="normal" text-decoration="none" fill="#FFFFFF" opacity="1" x="26.174" text-anchor="start" y="17.708" textLength="89.72222900390625">parse&nbsp;json</tspan></text><g width="142.07106782" height="21.875001907348633" transform="scale(1,1) translate(0,22.59803295632568)"></g></g></g></g><g width="1" height="46.375" transform="scale(1,1) translate(391.667,195.833)" style="user-select: none;"><g id="f5952dc7-976e-4110-82cc-adf94c59dc30"><g transform="scale(1,1) translate(0,0)" fill="#BFBFBF" stroke="#BFBFBF" stroke-opacity="1"><path d="M 0 0 L 0 36.375" fill="none" stroke-width="1" stroke-dasharray="none"></path><g><g stroke-dasharray="none"><path d="M5,36.375L0,46.375L-5,36.375z" stroke="none" fill-opacity="1"></path></g></g></g><g no-export="1" transform="scale(1,1) translate(0,0)" stroke="white" fill="none" opacity="0" pointer-events="stroke"><path d="M 0 0 L 0 22.375" fill="none" stroke-width="8" stroke-dasharray="none"></path><g><g stroke-dasharray="none"><path d="M12,22.375L0,46.375L-12,22.375z" stroke="none" fill-opacity="1"></path></g></g></g></g></g><g width="146.667" height="69.5" transform="scale(1,1) translate(551.667,515.25)" style="user-select: none;"><g><g width="146.667" height="69.5"><g transform="scale(1.0000022454745687,1.0000095688525688) translate(0,0)"><g><g width="143.333" height="57.833" transform="scale(1,1) translate(1.667,11)"><g transform="scale(1,1) translate(0,0)" stroke="#000000" fill-opacity="1" fill="#2195a4"><path d="M71.747,10.295 L57.365,9.992 L43.783,9.235 L31.639,8.327 L21.252,7.267 L12.304,6.056 L8.629,4.996 L5.593,4.088 L3.356,3.179 L1.598,2.271 L0.32,1.211 L0,0 L0,47.387 L0.32,48.447 L1.598,49.355 L3.356,50.566 L5.593,51.626 L8.629,52.232 L12.304,53.14 L21.252,54.654 L31.639,56.017 L43.783,56.925 L57.365,57.531 L71.747,57.833 L86.128,57.531 L99.55,56.925 L111.854,56.017 L122.241,54.654 L130.87,53.14 L134.545,52.232 L137.581,51.626 L139.978,50.566 L141.895,49.355 L142.854,48.447 L143.333,47.387 L143.333,0 L142.854,1.211 L141.895,2.271 L139.978,3.179 L137.581,4.088 L134.545,4.996 L130.87,6.056 L122.241,7.267 L111.854,8.327 L99.55,9.235 L86.128,9.992 L71.747,10.295 z" stroke-width="1.333" stroke-dasharray="none"></path></g></g><g width="143.333" height="20.667" transform="scale(1,1) translate(1.667,0.667)"><g transform="scale(1,1) translate(0,0)" stroke="#000000" fill-opacity="1" fill="#2195a4"><path d="M71.747,20.667 L86.128,20.36 L99.55,19.595 L111.854,18.677 L122.241,17.605 L130.87,16.38 L134.545,15.309 L137.581,14.39 L139.978,13.472 L141.895,12.553 L142.854,11.481 L143.333,10.257 L142.854,9.338 L141.895,8.42 L139.978,7.348 L137.581,6.43 L134.545,5.511 L130.87,4.593 L122.241,2.909 L111.854,1.684 L99.55,0.765 L86.128,0 L71.747,0 L57.365,0 L43.783,0.765 L31.639,1.684 L21.252,2.909 L12.304,4.593 L8.629,5.511 L5.593,6.43 L3.356,7.348 L1.598,8.42 L0.32,9.338 L0,10.257 L0.32,11.481 L1.598,12.553 L3.356,13.472 L5.593,14.39 L8.629,15.309 L12.304,16.38 L21.252,17.605 L31.639,18.677 L43.783,19.595 L57.365,20.36 L71.747,20.667 z" stroke-width="1.333" stroke-dasharray="none"></path></g></g><g width="143.333" height="14.333" transform="scale(1,1) translate(1.667,10.667)"><g transform="scale(1,1) translate(0,0)" stroke="#000000" fill-opacity="1" fill="#2195a4"><path d="M141.895,2.112 L139.978,3.168 L137.261,4.074 L132.627,5.281 L126.555,6.639 L119.684,7.544 L111.535,8.298 L102.427,9.204 L92.839,9.505 L82.453,9.958 L71.747,10.26 L61.041,9.958 L50.334,9.505 L40.747,9.204 L31.958,8.298 L23.969,7.544 L16.618,6.639 L10.546,5.281 L5.912,4.074 L3.356,3.168 L1.278,2.112 L0.32,0.905 L0,0 L0,4.074 L0.32,4.979 L1.278,6.337 L3.036,6.94 L4.954,7.846 L10.227,9.204 L17.577,10.561 L26.206,11.768 L36.273,12.674 L47.139,13.73 L59.123,14.032 L71.747,14.333 L84.53,14.032 L96.514,13.73 L107.54,12.674 L117.287,11.768 L125.916,10.561 L132.947,9.204 L138.22,7.846 L140.297,6.94 L141.895,6.337 L142.854,4.979 L143.333,4.074 L143.333,0 L142.854,0.905 L141.895,2.112 z" stroke-width="1.333" stroke-dasharray="none"></path></g></g><g width="145.333" height="16.333" transform="scale(1,1) translate(0.667,13.667)"><g transform="scale(1,1) translate(0,0)" stroke="#000000" fill-opacity="1" fill="#2195a4"><path d="M143.819,2.541 L142.137,3.448 L139.951,4.174 L134.736,5.626 L127.503,7.622 L118.756,8.893 L108.832,9.981 L97.562,10.707 L85.619,11.433 L72.498,11.433 L59.715,11.433 L47.772,10.707 L36.67,9.981 L26.409,8.893 L17.662,7.622 L10.093,5.626 L4.878,4.174 L2.86,3.448 L1.009,2.541 L0,1.27 L0,0 L0,4.537 L0,5.626 L1.346,6.896 L3.196,7.985 L5.551,8.893 L8.579,9.981 L12.279,11.07 L21.363,12.885 L31.96,14.156 L44.239,15.426 L58.032,15.789 L72.498,16.333 L87.133,15.789 L100.758,15.426 L113.205,14.156 L123.802,12.885 L132.549,11.07 L136.25,9.981 L139.278,8.893 L141.801,7.985 L143.819,6.896 L144.829,5.626 L145.333,4.537 L145.333,0 L144.829,1.27 L143.819,2.541 z" stroke-width="1.333" stroke-dasharray="none"></path></g></g></g></g></g><g stroke="white" fill="none" opacity="0" stroke-width="0" stroke-dasharray="none" pointer-events="all" no-export="1" width="146.667" height="69.5" transform="scale(1,1) translate(0,0)"><rect width="146.667" height="69.5"></rect></g><g width="64.07986450195312" height="16.666667938232422" transform="scale(1,1) translate(41.293,69.5)"><rect stroke-width="0" fill="none" visibility="hidden" no-export="1" transform="scale(1,1) translate(0,0)" width="64.07986450195312" height="16.666667938232422"></rect><text width="64.07986450195312" height="16.666667938232422" transform="scale(1,1) translate(0,0)" xml:space="preserve"><tspan xml:space="preserve" text-rendering="optimizeSpeed" style="font-family: &quot;Arial&quot;, &quot;Helvetica Neue&quot;, Helvetica, sans-serif;" font-size="13.88888888888889" font-weight="normal" font-style="normal" text-decoration="none" fill="#333333" opacity="1" x="0" text-anchor="start" y="13.542" textLength="64.07986450195312">RouteMap</tspan></text><g width="64.07986450195312" height="16.666667938232422" transform="scale(1,1) translate(0,0)"></g></g></g></g><g width="150" height="75" transform="scale(1,1) translate(316.667,512.5)" style="user-select: none;"><g id="6bd4fc67-bfdf-44b8-8fc9-00c84f44f741"><g transform="scale(1,1) translate(0,0)" stroke="#1C8BE6" stroke-opacity="1" fill="#f4e273" fill-opacity="1"><path d="M0,5 a5,5 0 0,1 5,-5 l140,0 a5,5 0 0,1 5,5 l0,65 a5,5 0 0,1 -5,5 l-140,0 a5,5 0 0,1 -5,-5 z" stroke-width="1" stroke-dasharray="none"></path><g></g></g><g transform="scale(1,1) translate(0,0)" stroke="white" fill="none" opacity="0" pointer-events="stroke" no-export="1"><path d="M0,5 a5,5 0 0,1 5,-5 l140,0 a5,5 0 0,1 5,5 l0,65 a5,5 0 0,1 -5,5 l-140,0 a5,5 0 0,1 -5,-5 z" stroke-width="8" stroke-dasharray="none"></path><g></g></g><g width="142.07106782" height="67.07106782" transform="scale(1,1) translate(3.964,3.964)"><rect stroke-width="0" fill="none" visibility="hidden" no-export="1" transform="scale(1,1) translate(0,0)" width="142.07106782" height="67.07106782"></rect><text width="142.07106782" height="43.750003814697266" transform="scale(1,1) translate(0,11.660532002651365)" xml:space="preserve"><tspan xml:space="preserve" text-rendering="optimizeSpeed" style="font-family: &quot;Arial&quot;, &quot;Helvetica Neue&quot;, Helvetica, sans-serif;" font-size="19.444444444444443" font-weight="normal" font-style="normal" text-decoration="none" fill="#FFFFFF" opacity="1" x="12.121" text-anchor="start" y="17.708" textLength="112.4305648803711">store&nbsp;node&nbsp;in</tspan><tspan xml:space="preserve" text-rendering="optimizeSpeed" style="font-family: &quot;Arial&quot;, &quot;Helvetica Neue&quot;, Helvetica, sans-serif;" font-size="19.444444444444443" font-weight="normal" font-style="normal" text-decoration="none" fill="#FFFFFF" opacity="1" x="26.174" text-anchor="start" y="39.583" textLength="89.72223663330078">RouteMap</tspan></text><g width="142.07106782" height="43.750003814697266" transform="scale(1,1) translate(0,11.660532002651365)"></g></g></g></g><g width="1" height="47.917" transform="scale(1,1) translate(391.667,464.583)" style="user-select: none;"><g><g transform="scale(1,1) translate(0,0)" fill="#BFBFBF" stroke="#BFBFBF" stroke-opacity="1"><path d="M 0 0 L 0 37.917" fill="none" stroke-width="1" stroke-dasharray="none"></path><g><g stroke-dasharray="none"><path d="M5,37.917L0,47.917L-5,37.917z" stroke="none" fill-opacity="1"></path></g></g></g><g no-export="1" transform="scale(1,1) translate(0,0)" stroke="white" fill="none" opacity="0" pointer-events="stroke"><path d="M 0 0 L 0 23.917" fill="none" stroke-width="8" stroke-dasharray="none"></path><g><g stroke-dasharray="none"><path d="M12,23.917L0,47.917L-12,23.917z" stroke="none" fill-opacity="1"></path></g></g></g></g></g><g width="85.008" height="1" transform="scale(1,1) translate(466.658,550)" style="user-select: none;"><g><g transform="scale(1,1) translate(0,0)" fill="#BFBFBF" stroke="#BFBFBF" stroke-opacity="1"><path d="M 0 0 L 75.008 0" fill="none" stroke-width="1" stroke-dasharray="none"></path><g><g stroke-dasharray="none"><path d="M75.008,-5L85.008,0L75.008,5z" stroke="none" fill-opacity="1"></path></g></g></g><g no-export="1" transform="scale(1,1) translate(0,0)" stroke="white" fill="none" opacity="0" pointer-events="stroke"><path d="M 0 0 L 61.008 0" fill="none" stroke-width="8" stroke-dasharray="none"></path><g><g stroke-dasharray="none"><path d="M61.008,-12L85.008,0L61.008,12z" stroke="none" fill-opacity="1"></path></g></g></g></g></g><g width="200" height="100" transform="scale(1,1) translate(291.667,627.604)" style="user-select: none;"><g id="433819f1-2472-42bf-87c2-c06e547661b7"><g transform="scale(1,1) translate(0,0)" stroke="#1C8BE6" fill="#1C8BE6" fill-opacity="1" stroke-opacity="1"><path d="M100,0 L200,50 L100,100 L0,50 L100,0 z" stroke-width="1" stroke-dasharray="none"></path><g></g></g><g transform="scale(1,1) translate(0,0)" stroke="white" fill="none" opacity="0" pointer-events="stroke" no-export="1"><path d="M100,0 L200,50 L100,100 L0,50 L100,0 z" stroke-width="8" stroke-dasharray="none"></path><g></g></g><g width="99.5" height="49.5" transform="scale(1,1) translate(50.25,25.25)"><rect stroke-width="0" fill="none" visibility="hidden" no-export="1" transform="scale(1,1) translate(0,0)" width="99.5" height="49.5"></rect><text width="99.5" height="43.750003814697266" transform="scale(1,1) translate(0,2.874998092651367)" xml:space="preserve"><tspan xml:space="preserve" text-rendering="optimizeSpeed" style="font-family: &quot;Arial&quot;, &quot;Helvetica Neue&quot;, Helvetica, sans-serif;" font-size="19.444444444444443" font-weight="normal" font-style="normal" text-decoration="none" fill="#FFFFFF" opacity="1" x="31.92" text-anchor="start" y="17.708" textLength="30.260419845581055">last</tspan><tspan xml:space="preserve" text-rendering="optimizeSpeed" style="font-family: &quot;Arial&quot;, &quot;Helvetica Neue&quot;, Helvetica, sans-serif;" font-size="19.444444444444443" font-weight="normal" font-style="normal" text-decoration="none" fill="#FFFFFF" opacity="1" x="9.75" text-anchor="start" y="39.583" textLength="80.00000381469727">element?</tspan></text><g width="99.5" height="43.750003814697266" transform="scale(1,1) translate(0,2.874998092651367)"></g></g></g></g><g width="75" height="310.938" transform="scale(1,1) translate(416.667,366.667)" style="user-select: none;"><g id="fb351966-7e35-4c02-83c9-ad7b688e57b0"><g transform="scale(1,1) translate(0,0)" fill="#BFBFBF" stroke="#BFBFBF" stroke-opacity="1"><path d="M 75 310.938 L 100 310.938 L 100 0 L 10 0" fill="none" stroke-width="1" stroke-dasharray="none"></path><g><g stroke-dasharray="none"><path d="M10,5L0,0L10,-5z" stroke="none" fill-opacity="1"></path></g></g></g><g no-export="1" transform="scale(1,1) translate(0,0)" stroke="white" fill="none" opacity="0" pointer-events="stroke"><path d="M 75 310.938 L 100 310.938 L 100 0 L 24 0" fill="none" stroke-width="8" stroke-dasharray="none"></path><g><g stroke-dasharray="none"><path d="M24,12L0,0L24,-12z" stroke="none" fill-opacity="1"></path></g></g></g><g stroke-width="0" stroke-dasharray="none" fill="#FFFFFF" opacity="1" width="31.34" height="18.667" transform="scale(1,1) translate(84.33,146.135)"><rect width="31.34" height="18.667"></rect></g><g width="29.340280532836914" height="310.93750000000017" transform="scale(1,1) translate(85.33,147.135)"><rect stroke-width="0" fill="none" visibility="hidden" no-export="1" transform="scale(1,1) translate(0,0)" width="29.340280532836914" height="310.93750000000017"></rect><text width="29.340280532836914" height="16.666667938232422" transform="scale(1,1) translate(0,0)" xml:space="preserve"><tspan xml:space="preserve" text-rendering="optimizeSpeed" style="font-family: &quot;Arial&quot;, &quot;Helvetica Neue&quot;, Helvetica, sans-serif;" font-size="13.88888888888889" font-weight="normal" font-style="normal" text-decoration="none" fill="#333333" opacity="1" x="0" text-anchor="start" y="13.542" textLength="29.340280532836914">false</tspan></text><g width="29.340280532836914" height="16.666667938232422" transform="scale(1,1) translate(0,0)"></g></g></g></g><g width="25" height="525" transform="scale(1,1) translate(291.667,292.208)" style="user-select: none;"><g><g transform="scale(1,1) translate(0,0)" fill="#BFBFBF" stroke="#BFBFBF" stroke-opacity="1"><path d="M 0 0 L -25 0 L -25 525 L 15 525" fill="none" stroke-width="1" stroke-dasharray="none"></path><g><g stroke-dasharray="none"><path d="M15,520L25,525L15,530z" stroke="none" fill-opacity="1"></path></g></g></g><g no-export="1" transform="scale(1,1) translate(0,0)" stroke="white" fill="none" opacity="0" pointer-events="stroke"><path d="M 0 0 L -25 0 L -25 525 L 1 525" fill="none" stroke-width="8" stroke-dasharray="none"></path><g><g stroke-dasharray="none"><path d="M1,513L25,525L1,537z" stroke="none" fill-opacity="1"></path></g></g></g><g stroke-width="0" stroke-dasharray="none" fill="#FFFFFF" opacity="1" width="25.924" height="18.667" transform="scale(1,1) translate(-37.962,253.167)"><rect width="25.924" height="18.667"></rect></g><g width="23.923612594604492" height="525" transform="scale(1,1) translate(-36.962,254.167)"><rect stroke-width="0" fill="none" visibility="hidden" no-export="1" transform="scale(1,1) translate(0,0)" width="23.923612594604492" height="525"></rect><text width="23.923612594604492" height="16.666667938232422" transform="scale(1,1) translate(0,0)" xml:space="preserve"><tspan xml:space="preserve" text-rendering="optimizeSpeed" style="font-family: &quot;Arial&quot;, &quot;Helvetica Neue&quot;, Helvetica, sans-serif;" font-size="13.88888888888889" font-weight="normal" font-style="normal" text-decoration="none" fill="#333333" opacity="1" x="0" text-anchor="start" y="13.542" textLength="23.923612594604492">true</tspan></text><g width="23.923612594604492" height="16.666667938232422" transform="scale(1,1) translate(0,0)"></g></g></g></g><g width="1" height="52.104" transform="scale(1,1) translate(391.667,727.604)" style="user-select: none;"><g><g transform="scale(1,1) translate(0,0)" fill="#BFBFBF" stroke="#BFBFBF" stroke-opacity="1"><path d="M 0 0 L 0 42.104" fill="none" stroke-width="1" stroke-dasharray="none"></path><g><g stroke-dasharray="none"><path d="M5,42.104L0,52.104L-5,42.104z" stroke="none" fill-opacity="1"></path></g></g></g><g no-export="1" transform="scale(1,1) translate(0,0)" stroke="white" fill="none" opacity="0" pointer-events="stroke"><path d="M 0 0 L 0 28.104" fill="none" stroke-width="8" stroke-dasharray="none"></path><g><g stroke-dasharray="none"><path d="M12,28.104L0,52.104L-12,28.104z" stroke="none" fill-opacity="1"></path></g></g></g><g stroke-width="0" stroke-dasharray="none" fill="#FFFFFF" opacity="1" width="25.924" height="18.667" transform="scale(1,1) translate(-12.962,16.719)"><rect width="25.924" height="18.667"></rect></g><g width="23.923612594604492" height="52.10416666666663" transform="scale(1,1) translate(-11.962,17.719)"><rect stroke-width="0" fill="none" visibility="hidden" no-export="1" transform="scale(1,1) translate(0,0)" width="23.923612594604492" height="52.10416666666663"></rect><text width="23.923612594604492" height="16.666667938232422" transform="scale(1,1) translate(0,0)" xml:space="preserve"><tspan xml:space="preserve" text-rendering="optimizeSpeed" style="font-family: &quot;Arial&quot;, &quot;Helvetica Neue&quot;, Helvetica, sans-serif;" font-size="13.88888888888889" font-weight="normal" font-style="normal" text-decoration="none" fill="#333333" opacity="1" x="0" text-anchor="start" y="13.542" textLength="23.923612594604492">true</tspan></text><g width="23.923612594604492" height="16.666667938232422" transform="scale(1,1) translate(0,0)"></g></g></g></g><g width="58.342" height="1" transform="scale(1,1) translate(258.333,158.333)" style="user-select: none;"><g><g transform="scale(1,1) translate(0,0)" fill="#BFBFBF" stroke="#BFBFBF" stroke-opacity="1"><path d="M 0 0 L 48.342 0" fill="none" stroke-width="1" stroke-dasharray="none"></path><g><g stroke-dasharray="none"><path d="M48.342,-5L58.342,0L48.342,5z" stroke="none" fill-opacity="1"></path></g></g></g><g no-export="1" transform="scale(1,1) translate(0,0)" stroke="white" fill="none" opacity="0" pointer-events="stroke"><path d="M 0 0 L 34.342 0" fill="none" stroke-width="8" stroke-dasharray="none"></path><g><g stroke-dasharray="none"><path d="M34.342,-12L58.342,0L34.342,12z" stroke="none" fill-opacity="1"></path></g></g></g></g></g></g><g transform="scale(0.96,0.96) translate(0,0)" no-export="1"></g><g transform="scale(0.96,0.96) translate(0,0)" no-export="1"></g><g transform="scale(0.96,0.96) translate(0,0)" no-export="1"></g></svg>
